<?xml version="1.0" encoding="UTF-8" standalone="no"?>
<svg
   width="272.46552"
   height="122.742"
   viewBox="0 0 272.46552 122.742"
   fill="none"
   version="1.1"
   id="svg14"
   xmlns="http://www.w3.org/2000/svg"
   xmlns:svg="http://www.w3.org/2000/svg">
  <defs
     id="defs14" />
  <path
     d="m 159.5385,14.260006 h -11.435 l 13.818,42.621 h 12.309 l 13.818,-42.621 h -11.436 l -8.653,32.105 z"
     fill="black"
     id="path3"
     style="fill:#096f4a;fill-opacity:1" />
  <path
     d="m 47.011499,6.3779302e-6 h 35.021 V 9.4800064 h -23.189 V 23.023006 h 21.601 v 9.48 h -21.601 v 14.898 h 23.189 v 9.48 h -35.021 z"
     fill="black"
     id="path4"
     style="fill:#096f4a;fill-opacity:1" />
  <path
     d="M 89.257499,6.3779302e-6 H 100.4555 V 56.881006 H 89.257499 Z"
     fill="black"
     id="path5"
     style="fill:#096f4a;fill-opacity:1" />
  <path
     d="m 107.2055,35.531006 c 0,-15.535 7.703,-22.227 19.694,-22.227 11.992,0 18.821,6.612 18.821,22.386 v 2.549 h -27.477 c 0.397,9.241 3.177,12.348 8.498,12.348 4.208,0 6.829,-2.469 7.306,-6.771 h 11.197 c -0.715,9.4 -8.497,14.021 -18.503,14.021 -12.707,0 -19.536,-6.772 -19.536,-22.306 z m 27.477,-4.701 c -0.556,-7.807 -3.256,-10.356 -7.941,-10.356 -4.686,0 -7.624,2.629 -8.418,10.356 z"
     fill="black"
     id="path6"
     style="fill:#096f4a;fill-opacity:1" />
  <path
     d="m 190.1925,35.531006 c 0,-15.535 7.703,-22.227 19.695,-22.227 11.991,0 18.821,6.612 18.821,22.386 v 2.549 h -27.477 c 0.397,9.241 3.176,12.348 8.497,12.348 4.209,0 6.829,-2.469 7.306,-6.771 h 11.197 c -0.715,9.4 -8.497,14.021 -18.503,14.021 -12.706,0 -19.536,-6.772 -19.536,-22.306 z m 27.477,-4.701 c -0.556,-7.807 -3.256,-10.356 -7.941,-10.356 -4.686,0 -7.624,2.629 -8.418,10.356 z"
     fill="black"
     id="path7"
     style="fill:#096f4a;fill-opacity:1" />
  <path
     d="m 246.8145,31.786006 c 0,-6.691 3.177,-10.356 8.1,-10.356 4.05,0 6.353,2.549 6.353,8.046 v 27.405 h 11.198 v -29.157 c 0,-9.879 -5.559,-14.42 -13.66,-14.42 -5.479,0 -10.006,2.789 -11.991,6.453 v -5.497 h -11.356 v 42.621 h 11.356 z"
     fill="black"
     id="path8"
     style="fill:#096f4a;fill-opacity:1" />
  <path
     d="m 46.911499,64.906006 h 11.833 V 112.306 h 22.236 v 9.48 h -34.069 z"
     fill="black"
     id="path9"
     style="fill:#096f4a;fill-opacity:1" />
  <path
     fill-rule="evenodd"
     clip-rule="evenodd"
     d="m 83.759499,100.436 c 0,-16.251994 7.465,-22.225994 17.074001,-22.225994 4.765,0 9.133,2.708 10.88,5.576 v -4.621 h 11.435 V 121.786 h -11.118 v -5.019 c -1.667,3.346 -6.353,5.975 -11.515,5.975 -10.165001,0 -16.756001,-6.533 -16.756001,-22.306 z M 103.7715,86.574006 c 5.559,0 8.577,4.222 8.577,13.861994 0,9.639 -3.018,13.941 -8.577,13.941 -5.559001,0 -8.735001,-4.302 -8.735001,-13.941 0,-9.639994 3.176,-13.861994 8.735001,-13.861994 z"
     fill="black"
     id="path10"
     style="fill:#096f4a;fill-opacity:1" />
  <path
     fill-rule="evenodd"
     clip-rule="evenodd"
     d="m 142.9225,116.767 v 5.019 h -11.118 V 64.906006 h 11.198 v 18.88 c 1.906,-2.948 6.353,-5.576 11.118,-5.576 9.37,0 16.835,5.974 16.835,22.225994 0,16.251 -7.306,22.306 -17.074,22.306 -5.162,0 -9.37,-2.629 -10.959,-5.975 z m 8.021,-30.112994 c 5.559,0 8.736,4.142 8.736,13.781994 0,9.639 -3.177,13.941 -8.736,13.941 -5.559,0 -8.577,-4.302 -8.577,-13.941 0,-9.639994 3.018,-13.781994 8.577,-13.781994 z"
     fill="black"
     id="path11"
     style="fill:#096f4a;fill-opacity:1" />
  <path
     d="m 175.5615,109.119 h 11.198 c 0.158,4.461 2.541,6.612 6.75,6.612 4.209,0 6.591,-1.912 6.591,-5.257 0,-3.028 -1.826,-4.143 -5.797,-5.099 l -3.415,-0.876 c -9.688,-2.47 -14.533,-5.098994 -14.533,-13.144994 0,-8.046 7.465,-13.144 16.995,-13.144 9.53,0 16.756,3.744 17.074,12.586 h -11.198 c -0.238,-3.903 -2.62,-5.576 -6.035,-5.576 -3.415,0 -5.797,1.673 -5.797,4.86 0,2.947 1.906,4.062 5.241,4.859 l 3.494,0.876 c 9.212,2.311 15.01,4.620994 15.01,13.224994 0,8.603 -7.624,13.702 -17.948,13.702 -11.197,0 -17.392,-4.222 -17.63,-13.623 z"
     fill="black"
     id="path12"
     style="fill:#096f4a;fill-opacity:1" />
  <path
     d="M -3.35875e-7,6.3779302e-6 H 11.834399 V 121.793 H -3.35875e-7 Z"
     fill="black"
     id="path13"
     style="fill:#096f4a;fill-opacity:1" />
  <path
     d="m 23.509499,6.3779302e-6 h 11.835 V 121.793 h -11.835 z"
     fill="black"
     id="path14"
     style="fill:#096f4a;fill-opacity:1" />
</svg>
