<svg xmlns="http://www.w3.org/2000/svg" xmlns:xlink="http://www.w3.org/1999/xlink" width="580" zoomAndPan="magnify" viewBox="0 0 434.88 434.999989" height="580" preserveAspectRatio="xMidYMid meet" version="1.0"><defs><g/><clipPath id="a0911794ef"><path d="M 13.667969 13.808594 L 415.554688 13.808594 L 415.554688 415.699219 L 13.667969 415.699219 Z M 13.667969 13.808594 " clip-rule="nonzero"/></clipPath><clipPath id="aa1096d7c2"><path d="M 48 0.0585938 L 269 0.0585938 L 269 340 L 48 340 Z M 48 0.0585938 " clip-rule="nonzero"/></clipPath><clipPath id="7724e3f4e0"><rect x="0" width="221" y="0" height="340"/></clipPath><clipPath id="8137e93faf"><path d="M 164 95 L 384 95 L 384 434.9375 L 164 434.9375 Z M 164 95 " clip-rule="nonzero"/></clipPath><clipPath id="b6acc2d799"><rect x="0" width="220" y="0" height="340"/></clipPath></defs><g clip-path="url(#a0911794ef)"><path fill="#62a783" d="M 113.191406 13.808594 L 316.023438 13.808594 C 317.652344 13.808594 319.277344 13.851562 320.90625 13.929688 C 322.53125 14.011719 324.15625 14.128906 325.777344 14.289062 C 327.398438 14.449219 329.015625 14.648438 330.625 14.886719 C 332.238281 15.125 333.839844 15.40625 335.4375 15.722656 C 337.035156 16.039062 338.625 16.398438 340.203125 16.792969 C 341.785156 17.1875 343.351562 17.621094 344.914062 18.09375 C 346.472656 18.570312 348.015625 19.078125 349.550781 19.628906 C 351.082031 20.175781 352.601562 20.761719 354.109375 21.386719 C 355.613281 22.007812 357.101562 22.667969 358.574219 23.367188 C 360.046875 24.0625 361.5 24.792969 362.9375 25.5625 C 364.375 26.328125 365.789062 27.132812 367.1875 27.96875 C 368.585938 28.808594 369.960938 29.679688 371.3125 30.582031 C 372.667969 31.488281 374 32.425781 375.308594 33.394531 C 376.617188 34.367188 377.898438 35.367188 379.160156 36.402344 C 380.417969 37.433594 381.652344 38.496094 382.859375 39.589844 C 384.0625 40.683594 385.242188 41.808594 386.394531 42.960938 C 387.546875 44.113281 388.667969 45.289062 389.761719 46.496094 C 390.855469 47.703125 391.921875 48.9375 392.953125 50.195312 C 393.988281 51.457031 394.988281 52.738281 395.960938 54.046875 C 396.929688 55.355469 397.867188 56.6875 398.773438 58.042969 C 399.675781 59.394531 400.546875 60.769531 401.386719 62.167969 C 402.222656 63.566406 403.027344 64.980469 403.792969 66.417969 C 404.5625 67.855469 405.292969 69.308594 405.988281 70.78125 C 406.6875 72.253906 407.347656 73.742188 407.96875 75.246094 C 408.59375 76.75 409.179688 78.269531 409.726562 79.804688 C 410.277344 81.339844 410.785156 82.882812 411.257812 84.441406 C 411.730469 86 412.167969 87.570312 412.5625 89.152344 C 412.957031 90.730469 413.316406 92.320312 413.632812 93.917969 C 413.949219 95.515625 414.230469 97.117188 414.46875 98.730469 C 414.707031 100.339844 414.90625 101.957031 415.066406 103.578125 C 415.226562 105.199219 415.34375 106.824219 415.425781 108.449219 C 415.503906 110.078125 415.542969 111.703125 415.542969 113.332031 L 415.542969 316.164062 C 415.542969 317.792969 415.503906 319.421875 415.425781 321.046875 C 415.34375 322.675781 415.226562 324.300781 415.066406 325.921875 C 414.90625 327.542969 414.707031 329.15625 414.46875 330.769531 C 414.230469 332.378906 413.949219 333.984375 413.632812 335.582031 C 413.316406 337.179688 412.957031 338.765625 412.5625 340.347656 C 412.167969 341.925781 411.730469 343.496094 411.257812 345.054688 C 410.785156 346.613281 410.277344 348.160156 409.726562 349.691406 C 409.179688 351.226562 408.59375 352.746094 407.96875 354.25 C 407.347656 355.753906 406.6875 357.242188 405.988281 358.714844 C 405.292969 360.1875 404.5625 361.644531 403.792969 363.078125 C 403.027344 364.515625 402.222656 365.933594 401.386719 367.328125 C 400.546875 368.726562 399.675781 370.101562 398.773438 371.457031 C 397.867188 372.8125 396.929688 374.140625 395.960938 375.449219 C 394.988281 376.757812 393.988281 378.042969 392.953125 379.300781 C 391.921875 380.5625 390.855469 381.792969 389.761719 383 C 388.667969 384.207031 387.546875 385.386719 386.394531 386.539062 C 385.242188 387.691406 384.0625 388.8125 382.859375 389.90625 C 381.652344 391 380.417969 392.0625 379.160156 393.097656 C 377.898438 394.128906 376.617188 395.132812 375.308594 396.101562 C 374 397.074219 372.667969 398.011719 371.3125 398.914062 C 369.960938 399.820312 368.585938 400.691406 367.1875 401.527344 C 365.789062 402.367188 364.375 403.167969 362.9375 403.9375 C 361.5 404.703125 360.046875 405.4375 358.574219 406.132812 C 357.101562 406.828125 355.613281 407.488281 354.109375 408.113281 C 352.601562 408.734375 351.082031 409.320312 349.550781 409.871094 C 348.015625 410.417969 346.472656 410.929688 344.914062 411.402344 C 343.351562 411.875 341.785156 412.308594 340.203125 412.703125 C 338.625 413.101562 337.035156 413.457031 335.4375 413.773438 C 333.839844 414.09375 332.238281 414.371094 330.625 414.609375 C 329.015625 414.847656 327.398438 415.046875 325.777344 415.207031 C 324.15625 415.367188 322.53125 415.488281 320.90625 415.566406 C 319.277344 415.648438 317.652344 415.6875 316.023438 415.6875 L 113.191406 415.6875 C 111.5625 415.6875 109.933594 415.648438 108.304688 415.566406 C 106.679688 415.488281 105.054688 415.367188 103.433594 415.207031 C 101.8125 415.046875 100.199219 414.847656 98.585938 414.609375 C 96.976562 414.371094 95.371094 414.09375 93.773438 413.773438 C 92.175781 413.457031 90.585938 413.101562 89.007812 412.707031 C 87.429688 412.308594 85.859375 411.875 84.300781 411.402344 C 82.742188 410.929688 81.195312 410.417969 79.660156 409.871094 C 78.128906 409.320312 76.609375 408.734375 75.105469 408.113281 C 73.597656 407.488281 72.109375 406.828125 70.636719 406.132812 C 69.167969 405.4375 67.710938 404.703125 66.273438 403.9375 C 64.839844 403.167969 63.421875 402.367188 62.023438 401.527344 C 60.628906 400.691406 59.253906 399.820312 57.898438 398.914062 C 56.542969 398.011719 55.210938 397.074219 53.90625 396.101562 C 52.597656 395.132812 51.3125 394.128906 50.054688 393.097656 C 48.792969 392.0625 47.5625 391 46.355469 389.90625 C 45.148438 388.8125 43.96875 387.691406 42.816406 386.539062 C 41.664062 385.386719 40.542969 384.207031 39.449219 383 C 38.355469 381.792969 37.292969 380.5625 36.257812 379.300781 C 35.226562 378.042969 34.222656 376.757812 33.253906 375.449219 C 32.28125 374.140625 31.34375 372.8125 30.441406 371.457031 C 29.535156 370.101562 28.664062 368.726562 27.828125 367.328125 C 26.988281 365.933594 26.1875 364.515625 25.417969 363.078125 C 24.652344 361.644531 23.917969 360.1875 23.222656 358.714844 C 22.527344 357.242188 21.867188 355.753906 21.242188 354.25 C 20.621094 352.746094 20.035156 351.226562 19.484375 349.691406 C 18.9375 348.160156 18.425781 346.613281 17.953125 345.054688 C 17.480469 343.496094 17.046875 341.925781 16.648438 340.347656 C 16.253906 338.765625 15.898438 337.179688 15.578125 335.582031 C 15.261719 333.984375 14.984375 332.378906 14.746094 330.769531 C 14.503906 329.15625 14.304688 327.542969 14.148438 325.921875 C 13.988281 324.300781 13.867188 322.675781 13.789062 321.046875 C 13.707031 319.421875 13.667969 317.792969 13.667969 316.164062 L 13.667969 113.332031 C 13.667969 111.703125 13.707031 110.078125 13.789062 108.449219 C 13.867188 106.824219 13.988281 105.199219 14.148438 103.578125 C 14.304688 101.957031 14.503906 100.339844 14.746094 98.730469 C 14.984375 97.117188 15.261719 95.515625 15.578125 93.917969 C 15.898438 92.320312 16.253906 90.730469 16.648438 89.152344 C 17.046875 87.570312 17.480469 86 17.953125 84.441406 C 18.425781 82.882812 18.9375 81.339844 19.484375 79.804688 C 20.035156 78.269531 20.621094 76.75 21.242188 75.246094 C 21.867188 73.742188 22.527344 72.253906 23.222656 70.78125 C 23.917969 69.308594 24.652344 67.855469 25.417969 66.417969 C 26.1875 64.980469 26.988281 63.566406 27.828125 62.167969 C 28.664062 60.769531 29.535156 59.394531 30.441406 58.042969 C 31.34375 56.6875 32.28125 55.355469 33.253906 54.046875 C 34.222656 52.738281 35.226562 51.457031 36.257812 50.195312 C 37.292969 48.9375 38.355469 47.703125 39.449219 46.496094 C 40.542969 45.289062 41.664062 44.113281 42.816406 42.960938 C 43.96875 41.808594 45.148438 40.683594 46.355469 39.589844 C 47.5625 38.496094 48.792969 37.433594 50.054688 36.402344 C 51.3125 35.367188 52.597656 34.367188 53.90625 33.394531 C 55.210938 32.425781 56.542969 31.488281 57.898438 30.582031 C 59.253906 29.679688 60.628906 28.808594 62.023438 27.96875 C 63.421875 27.132812 64.839844 26.328125 66.273438 25.5625 C 67.710938 24.792969 69.167969 24.0625 70.636719 23.367188 C 72.109375 22.667969 73.597656 22.007812 75.105469 21.386719 C 76.609375 20.761719 78.128906 20.175781 79.660156 19.628906 C 81.195312 19.078125 82.742188 18.570312 84.300781 18.09375 C 85.859375 17.621094 87.429688 17.1875 89.007812 16.792969 C 90.585938 16.398438 92.175781 16.039062 93.773438 15.722656 C 95.371094 15.40625 96.976562 15.125 98.585938 14.886719 C 100.199219 14.648438 101.8125 14.449219 103.433594 14.289062 C 105.054688 14.128906 106.679688 14.011719 108.304688 13.929688 C 109.933594 13.851562 111.5625 13.808594 113.191406 13.808594 Z M 113.191406 13.808594 " fill-opacity="1" fill-rule="nonzero"/></g><g clip-path="url(#aa1096d7c2)"><g transform="matrix(1, 0, 0, 1, 48, -0.000000000000038837)"><g clip-path="url(#7724e3f4e0)"><g fill="#f6f4f0" fill-opacity="1"><g transform="translate(1.052546, 265.666053)"><g><path d="M 212.578125 -74.234375 L 212.578125 -50.34375 C 212.578125 -43.332031 211.1875 -37.289062 208.40625 -32.21875 C 205.632812 -27.15625 203.28125 -23.414062 201.34375 -21 C 197.96875 -16.65625 194.226562 -13.335938 190.125 -11.046875 C 186.019531 -8.753906 183.125 -7.003906 181.4375 -5.796875 C 176.363281 -2.898438 170.925781 -1.207031 165.125 -0.71875 C 159.332031 -0.238281 155.59375 0 153.90625 0 L 11.953125 0 C 10.015625 0 9.171875 -0.960938 9.421875 -2.890625 C 9.898438 -6.515625 10.378906 -12.671875 10.859375 -21.359375 C 11.347656 -30.054688 11.648438 -39.65625 11.765625 -50.15625 C 11.890625 -60.65625 12.007812 -70.550781 12.125 -79.84375 C 12.25 -89.144531 12.191406 -96.207031 11.953125 -101.03125 C 11.710938 -105.625 11.46875 -112.382812 11.21875 -121.3125 C 10.976562 -130.25 10.796875 -139.546875 10.671875 -149.203125 C 10.554688 -158.859375 10.4375 -167.546875 10.3125 -175.265625 C 10.195312 -182.992188 10.140625 -188.066406 10.140625 -190.484375 C 10.140625 -193.867188 10.195312 -198.210938 10.3125 -203.515625 C 10.4375 -208.828125 10.5 -213.65625 10.5 -218 C 10.5 -222.351562 10.5 -224.769531 10.5 -225.25 C 10.5 -226.9375 11.34375 -227.78125 13.03125 -227.78125 L 155 -227.78125 C 160.3125 -227.78125 166.222656 -227.175781 172.734375 -225.96875 C 179.253906 -224.769531 184.207031 -222.960938 187.59375 -220.546875 C 190.488281 -218.609375 193.6875 -216.070312 197.1875 -212.9375 C 200.6875 -209.800781 203.640625 -205.210938 206.046875 -199.171875 C 208.460938 -193.140625 209.671875 -184.8125 209.671875 -174.1875 C 209.671875 -165.976562 208.582031 -159.519531 206.40625 -154.8125 C 204.238281 -150.101562 201.828125 -145.816406 199.171875 -141.953125 C 196.273438 -138.097656 193.132812 -135.082031 189.75 -132.90625 C 186.375 -130.726562 183.117188 -128.796875 179.984375 -127.109375 C 177.804688 -126.140625 176.234375 -124.929688 175.265625 -123.484375 C 174.304688 -122.035156 175.394531 -120.46875 178.53125 -118.78125 C 181.425781 -117.09375 184.6875 -115.765625 188.3125 -114.796875 C 191.9375 -113.828125 196.039062 -111.171875 200.625 -106.828125 C 204.488281 -102.722656 207.445312 -98.132812 209.5 -93.0625 C 211.550781 -88 212.578125 -81.722656 212.578125 -74.234375 Z M 113.34375 -40.203125 C 116.25 -43.816406 117.519531 -47.796875 117.15625 -52.140625 C 116.789062 -56.492188 116.609375 -60.722656 116.609375 -64.828125 C 116.367188 -69.171875 116.003906 -73.875 115.515625 -78.9375 C 115.035156 -84.007812 112.625 -87.875 108.28125 -90.53125 C 106.351562 -91.976562 104.300781 -92.460938 102.125 -91.984375 C 99.46875 -91.984375 98.140625 -90.289062 98.140625 -86.90625 C 98.378906 -84.007812 98.378906 -79.96875 98.140625 -74.78125 C 97.898438 -69.59375 97.65625 -64.28125 97.40625 -58.84375 C 97.164062 -53.414062 97.164062 -48.648438 97.40625 -44.546875 C 97.65625 -40.441406 98.382812 -38.023438 99.59375 -37.296875 C 102 -35.609375 104.46875 -35.1875 107 -36.03125 C 109.539062 -36.875 111.65625 -38.265625 113.34375 -40.203125 Z M 108.28125 -133.984375 C 113.832031 -136.160156 116.96875 -140.082031 117.6875 -145.75 C 118.414062 -151.425781 118.78125 -156.5625 118.78125 -161.15625 C 118.539062 -165.738281 118.238281 -170.203125 117.875 -174.546875 C 117.507812 -178.898438 115.640625 -183.003906 112.265625 -186.859375 C 109.609375 -189.753906 106.585938 -190.359375 103.203125 -188.671875 C 101.035156 -187.460938 99.953125 -185.773438 99.953125 -183.609375 C 100.191406 -174.910156 100.128906 -167.179688 99.765625 -160.421875 C 99.398438 -153.660156 98.976562 -145.9375 98.5 -137.25 C 98.5 -135.320312 99.644531 -134.113281 101.9375 -133.625 C 104.238281 -133.144531 106.351562 -133.265625 108.28125 -133.984375 Z M 108.28125 -133.984375 "/></g></g></g></g></g></g><g clip-path="url(#8137e93faf)"><g transform="matrix(1, 0, 0, 1, 164, 95)"><g clip-path="url(#b6acc2d799)"><g fill="#f6f4f0" fill-opacity="1"><g transform="translate(0.189731, 289.204319)"><g><path d="M 212.578125 -74.234375 L 212.578125 -50.34375 C 212.578125 -43.332031 211.1875 -37.289062 208.40625 -32.21875 C 205.632812 -27.15625 203.28125 -23.414062 201.34375 -21 C 197.96875 -16.65625 194.226562 -13.335938 190.125 -11.046875 C 186.019531 -8.753906 183.125 -7.003906 181.4375 -5.796875 C 176.363281 -2.898438 170.925781 -1.207031 165.125 -0.71875 C 159.332031 -0.238281 155.59375 0 153.90625 0 L 11.953125 0 C 10.015625 0 9.171875 -0.960938 9.421875 -2.890625 C 9.898438 -6.515625 10.378906 -12.671875 10.859375 -21.359375 C 11.347656 -30.054688 11.648438 -39.65625 11.765625 -50.15625 C 11.890625 -60.65625 12.007812 -70.550781 12.125 -79.84375 C 12.25 -89.144531 12.191406 -96.207031 11.953125 -101.03125 C 11.710938 -105.625 11.46875 -112.382812 11.21875 -121.3125 C 10.976562 -130.25 10.796875 -139.546875 10.671875 -149.203125 C 10.554688 -158.859375 10.4375 -167.546875 10.3125 -175.265625 C 10.195312 -182.992188 10.140625 -188.066406 10.140625 -190.484375 C 10.140625 -193.867188 10.195312 -198.210938 10.3125 -203.515625 C 10.4375 -208.828125 10.5 -213.65625 10.5 -218 C 10.5 -222.351562 10.5 -224.769531 10.5 -225.25 C 10.5 -226.9375 11.34375 -227.78125 13.03125 -227.78125 L 155 -227.78125 C 160.3125 -227.78125 166.222656 -227.175781 172.734375 -225.96875 C 179.253906 -224.769531 184.207031 -222.960938 187.59375 -220.546875 C 190.488281 -218.609375 193.6875 -216.070312 197.1875 -212.9375 C 200.6875 -209.800781 203.640625 -205.210938 206.046875 -199.171875 C 208.460938 -193.140625 209.671875 -184.8125 209.671875 -174.1875 C 209.671875 -165.976562 208.582031 -159.519531 206.40625 -154.8125 C 204.238281 -150.101562 201.828125 -145.816406 199.171875 -141.953125 C 196.273438 -138.097656 193.132812 -135.082031 189.75 -132.90625 C 186.375 -130.726562 183.117188 -128.796875 179.984375 -127.109375 C 177.804688 -126.140625 176.234375 -124.929688 175.265625 -123.484375 C 174.304688 -122.035156 175.394531 -120.46875 178.53125 -118.78125 C 181.425781 -117.09375 184.6875 -115.765625 188.3125 -114.796875 C 191.9375 -113.828125 196.039062 -111.171875 200.625 -106.828125 C 204.488281 -102.722656 207.445312 -98.132812 209.5 -93.0625 C 211.550781 -88 212.578125 -81.722656 212.578125 -74.234375 Z M 113.34375 -40.203125 C 116.25 -43.816406 117.519531 -47.796875 117.15625 -52.140625 C 116.789062 -56.492188 116.609375 -60.722656 116.609375 -64.828125 C 116.367188 -69.171875 116.003906 -73.875 115.515625 -78.9375 C 115.035156 -84.007812 112.625 -87.875 108.28125 -90.53125 C 106.351562 -91.976562 104.300781 -92.460938 102.125 -91.984375 C 99.46875 -91.984375 98.140625 -90.289062 98.140625 -86.90625 C 98.378906 -84.007812 98.378906 -79.96875 98.140625 -74.78125 C 97.898438 -69.59375 97.65625 -64.28125 97.40625 -58.84375 C 97.164062 -53.414062 97.164062 -48.648438 97.40625 -44.546875 C 97.65625 -40.441406 98.382812 -38.023438 99.59375 -37.296875 C 102 -35.609375 104.46875 -35.1875 107 -36.03125 C 109.539062 -36.875 111.65625 -38.265625 113.34375 -40.203125 Z M 108.28125 -133.984375 C 113.832031 -136.160156 116.96875 -140.082031 117.6875 -145.75 C 118.414062 -151.425781 118.78125 -156.5625 118.78125 -161.15625 C 118.539062 -165.738281 118.238281 -170.203125 117.875 -174.546875 C 117.507812 -178.898438 115.640625 -183.003906 112.265625 -186.859375 C 109.609375 -189.753906 106.585938 -190.359375 103.203125 -188.671875 C 101.035156 -187.460938 99.953125 -185.773438 99.953125 -183.609375 C 100.191406 -174.910156 100.128906 -167.179688 99.765625 -160.421875 C 99.398438 -153.660156 98.976562 -145.9375 98.5 -137.25 C 98.5 -135.320312 99.644531 -134.113281 101.9375 -133.625 C 104.238281 -133.144531 106.351562 -133.265625 108.28125 -133.984375 Z M 108.28125 -133.984375 "/></g></g></g></g></g></g></svg>