<?xml version="1.0" encoding="UTF-8" standalone="no"?>
<svg
   width="391.43161"
   height="79.346527"
   viewBox="0 0 391.43161 79.346527"
   fill="none"
   version="1.1"
   id="svg14"
   xml:space="preserve"
   xmlns="http://www.w3.org/2000/svg"
   xmlns:svg="http://www.w3.org/2000/svg"><defs
     id="defs14" /><path
     style="fill:#096f4a;fill-opacity:1;stroke:none;stroke-width:0.550143"
     d="m 27.935905,0.08121535 c -0.95469,0.14912 -1.86295,0.47665 -2.67417,1.00713005 -5.79963,3.79256 -1.86294,12.8159706 4.76701,11.6981606 0.86628,-0.14606 1.71362,-0.49456 2.44163,-0.98406 5.49292,-3.6933006 2.06674,-12.75233065 -4.53447,-11.72123065 m 21.97474,2.09203005 c -0.74142,0.0976 -1.47686,0.30003 -2.09283,0.73914 -3.66255,2.61089 -1.28161,8.4168806 3.13925,7.7795906 5.31948,-0.7668306 4.25811,-9.2172406 -1.04642,-8.5187306 m -44.4145403,1.17399 c -4.00316,0.92379 -2.36704,7.2040306 1.62776,6.22862 4.1038103,-1.00203 2.45169,-7.17001 -1.62776,-6.22862 m 66.5055403,-0.001 c -4.05706,0.88013 -2.49284,7.1745506 1.51149,6.25534 4.072464,-0.93484 2.583564,-7.14372 -1.51149,-6.25534 M 266.98382,12.354886 v 53.01841 h 10.92924 v -53.01851 h -10.92924 m 20.69579,0 v 53.01841 h 10.92923 v -53.01841 h -10.92923 m -175.79788,53.01841 h 11.62684 v -17.55654 c 0.90063,0 2.56211,-0.32095 3.35966,0.11949 0.44357,0.24496 0.7074,0.86071 0.96461,1.27573 l 1.8872,3.02298 c 1.88322,3.02372 3.76108,6.05124 5.65375,9.06894 0.7157,1.14114 1.45374,3.03198 2.49725,3.88297 0.69637,0.5679 2.78485,0.18643 3.65914,0.18643 h 10.23162 l -5.0383,-7.67372 -7.75123,-11.74312 c 10.66021,-4.43808 12.32302,-19.66892 3.72059,-26.93983 -5.65098,-4.7763 -13.20575,-4.22011 -20.11444,-4.22011 h -7.67372 c -0.65769,0 -2.30794,-0.29918 -2.83655,0.11949 -0.5173,0.40971 -0.18642,2.51044 -0.18642,3.13603 v 9.30147 38.01979 m 212.1899,0 h 8.72014 c 0.77177,0 2.55398,0.33166 3.19621,-0.11951 0.52111,-0.36608 0.67067,-1.73528 0.83934,-2.32213 0.53581,-1.86426 1.08863,-3.72688 1.65873,-5.58089 0.18181,-0.59124 0.28587,-1.71405 0.76015,-2.13894 0.62565,-0.56053 2.73202,-0.18643 3.54465,-0.18643 h 10.11535 c 0.844,0 3.24337,-0.41121 3.87141,0.18643 0.57243,0.54473 0.72602,2.0881 0.94493,2.83656 0.71147,2.43235 1.59353,4.85488 2.15977,7.32491 h 12.44072 c -3.74119,-11.49778 -7.64825,-22.94471 -11.47183,-34.41546 -1.77332,-5.31995 -4.12352,-10.69833 -5.38709,-16.16132 h -10.58043 c -0.94119,0 -3.11399,-0.40565 -3.90442,0.11949 -0.7242,0.48116 -1.0203,2.56276 -1.28891,3.36856 l -3.10048,9.30148 -8.44885,25.34652 -2.71291,8.13879 c -0.46304,1.38907 -1.14242,2.85252 -1.35648,4.30194 m 55.57631,0 h 11.62685 v -36.15949 -10.11535 c 0,-1.05549 0.39578,-3.08552 -0.0702,-4.03245 -0.272,-0.55271 -2.07171,-0.26949 -2.604,-0.26949 h -6.39477 c -0.56934,0 -1.90884,-0.24693 -2.37147,0.11949 -0.5173,0.40971 -0.18644,2.51044 -0.18644,3.13603 v 9.30147 38.01979 M 23.750215,39.561596 v 0.23254 c -1.85679,0.58782 -3.51345,2.28661 -4.59978,3.83686 -4.21181,6.01053 -1.73659,14.61732 4.94858,17.5726 5.20664,2.30165 13.45216,0.27391 15.34744,-5.71322 h 0.23254 c 1.89466,5.98519 10.14273,8.014 15.34743,5.71322 6.66997,-2.94855 9.17056,-11.5749 4.94849,-17.5726 -1.09406,-1.55419 -2.73669,-3.24708 -4.59969,-3.83686 v -0.23254 c 5.9842,-1.89448 8.0134,-10.14429 5.71321,-15.34743 -2.95138,-6.67616 -11.57241,-9.17231 -17.57258,-4.94849 -1.55879,1.09729 -3.24583,2.73193 -3.83686,4.59968 h -0.23254 c -1.83962,-5.81138 -9.84468,-7.96494 -14.99863,-5.87702 -6.9082,2.79859 -9.60422,11.6183 -5.2973,17.7364 1.09409,1.55418 2.73668,3.24706 4.59969,3.83686 M 199.31559,18.400736 v 8.95267 h -5.46462 v 8.02253 h 5.46462 v 15.11489 c 0,3.55921 -0.006,7.50082 2.06368,10.58043 2.97047,4.42021 8.95369,5.17077 13.8651,4.56757 1.07128,-0.13157 3.84733,-0.16486 4.53123,-1.13881 0.37234,-0.53025 0.11951,-1.86906 0.11951,-2.49861 v -6.39477 c -0.774,0.14926 -1.46301,0.65452 -2.20911,0.91975 -1.71964,0.61136 -3.94432,0.74991 -5.58088,-0.18534 -2.10288,-1.20176 -1.74403,-3.67461 -1.74403,-5.73395 v -15.23116 h 8.83641 v -8.02253 h -8.83641 v -8.95267 h -11.0455 m -126.732595,4.12915 c -1.03594,0.0655 -1.98292,0.30308 -2.90671,0.78463 -6.20933,3.23679 -2.92267,12.51657 3.72058,12.05101 0.84742,-0.0594 1.698344,-0.31772 2.441644,-0.72354 5.707,-3.11591 3.48334,-12.53807 -3.255514,-12.1121 m 275.439935,0.98667 2.5755,9.99908 3.47046,12.20819 h -12.09192 c 0.64677,-4.39591 2.53974,-8.84329 3.70299,-13.13833 0.54515,-2.01285 1.09609,-4.02264 1.60193,-6.04597 0.23929,-0.95722 0.31658,-2.14 0.74104,-3.02297 m -224.51436,14.99862 v -14.30101 c 3.07086,0 7.13447,-0.67999 9.88282,0.98416 3.98657,2.41391 4.3474,9.85686 0.11626,12.28443 -2.82894,1.62309 -6.86771,1.03242 -9.99908,1.03242 M 5.6123647,24.733236 c -5.58960002,1.00597 -3.91533,9.47469 1.62776,8.42255 5.3672703,-1.01875 3.7140203,-9.38392 -1.62776,-8.42255 M 187.45621,54.095156 c -5.33762,3.29398 -13.32071,5.14516 -18.36002,0.10586 -1.00755,-1.00754 -1.61812,-2.20853 -2.21949,-3.47765 h 16.39385 4.30193 c 0.40492,0 1.20603,0.15118 1.54146,-0.1195 0.35801,-0.28887 0.29709,-1.20524 0.35159,-1.62452 0.20756,-1.59705 0.31605,-3.15678 0.31605,-4.76701 0,-7.52366 -3.40332,-14.56505 -11.16177,-16.60845 -2.1609,-0.56912 -4.63214,-0.82909 -6.85984,-0.56608 -4.15709,0.49079 -7.90175,1.97812 -10.90949,4.98608 -6.55769,6.5582 -6.75829,18.97325 -1.5637,26.3732 4.76245,6.78436 13.02964,8.03162 20.72825,7.1104 1.85396,-0.22184 3.71999,-0.54086 5.46461,-1.23301 0.56744,-0.22511 1.38302,-0.46906 1.79013,-0.94873 0.43799,-0.51604 0.18644,-1.84465 0.18644,-2.48702 v -6.74357 m 68.94718,0 c -1.85393,1.03216 -3.49699,2.10043 -5.58088,2.65613 -5.8334,1.55553 -12.51938,-0.0734 -14.99863,-6.02792 h 22.32354 c 1.23533,-6.65012 0.99149,-14.83276 -4.30193,-19.75523 -6.49772,-6.04238 -17.98494,-5.03728 -24.063,1.04058 -2.75879,2.75872 -4.33895,6.51297 -4.855,10.34332 -1.10393,8.19395 1.48972,17.41387 9.3849,21.362 3.20857,1.60448 6.58226,2.00796 10.11536,2.00796 2.99618,0 5.94206,-0.23202 8.8364,-1.06284 0.82756,-0.23755 2.53153,-0.65564 3.01974,-1.4241 0.36382,-0.57268 0.1195,-1.85116 0.1195,-2.5126 v -6.6273 M 39.679025,33.980706 c 1.00395,2.41072 3.17013,4.57698 5.58088,5.58089 v 0.23254 c -2.41076,1.00392 -4.57693,3.17016 -5.58088,5.58088 h -0.23254 c -1.00396,-2.41072 -3.17013,-4.57697 -5.58088,-5.58088 v -0.23254 c 2.41074,-1.00391 4.57693,-3.17016 5.58088,-5.58089 h 0.23254 m 126.732595,8.95268 c 0.6207,-4.60924 5.13421,-9.56305 10.11536,-7.04851 1.85433,0.93608 2.66662,3.02063 2.97194,4.95567 0.0715,0.45334 0.35479,1.51755 0.0478,1.90641 -0.4171,0.52835 -2.61145,0.18643 -3.25229,0.18643 h -9.88281 m 82.08552,0 H 235.3588 c 0.29669,-2.2973 1.32432,-4.62041 3.13925,-6.10823 2.44697,-2.00593 6.77982,-2.2001 8.70918,0.64361 1.10231,1.62469 1.28991,3.56182 1.28991,5.46462 M 5.3798347,44.030836 c -6.45779,1.0087 -7.45855,10.51295 -1.04641,12.48208 1.00991,0.31015 2.09456,0.37373 3.13924,0.22151 6.7416603,-0.98231 6.9066703,-10.79876 0.58134,-12.5517 -0.84728,-0.23481 -1.80405,-0.2878 -2.67417,-0.15189 m 66.8543503,2.09283 c -5.53172,0.86861 -4.36744,9.31484 1.16269,8.51793 5.462034,-0.7871 4.271374,-9.37121 -1.16269,-8.51793 m -22.4398,20.34537 c -1.57733,0.21217 -3.04336,0.76533 -4.17517,1.93171 -4.12268,4.24859 -0.42301,11.65477 5.45412,10.89102 1.03663,-0.13472 2.04538,-0.50697 2.90671,-1.10276 5.07454,-3.5102 2.28109,-12.58985 -4.18566,-11.71997 m -21.7422,2.21369 c -5.58869,1.00767 -3.7813,9.45546 1.74402,8.39742 5.38196,-1.03058 3.62013,-9.36462 -1.74402,-8.39742 m -22.3235403,1.04676 c -4.11075,0.77529 -2.84876,6.99715 1.27895,6.30253 4.0926303,-0.68869 2.76218,-7.06468 -1.27895,-6.30253 m 66.5055403,-3.4e-4 c -4.23484,0.76354 -2.92683,7.04135 1.27896,6.30252 3.976194,-0.69851 2.692614,-7.01861 -1.27896,-6.30252 z"
     id="path14" /></svg>
