<?xml version="1.0" encoding="UTF-8" standalone="no"?>
<!-- Created with Inkscape (http://www.inkscape.org/) -->

<svg
   width="142.65892mm"
   height="40.441799mm"
   viewBox="0 0 142.65892 40.441799"
   version="1.1"
   id="svg1"
   xml:space="preserve"
   xmlns="http://www.w3.org/2000/svg"
   xmlns:svg="http://www.w3.org/2000/svg"><defs
     id="defs1" /><g
     id="layer1"
     transform="translate(-25.533969,-86.807242)"><path
       style="fill:#096e49;fill-opacity:1"
       d="m 63.753812,126.98954 c -7.85813,-0.11729 -16.0134,-0.24683 -18.12283,-0.28788 l -3.83533,-0.0746 10.31762,-1.15723 c 11.99323,-1.34517 12.03741,-1.35128 12.03741,-1.66337 0,-0.1308 -2.95325,-3.65733 -6.56278,-7.83673 -3.60953,-4.17941 -6.64793,-7.7401 -6.75199,-7.91266 -0.10601,-0.17578 1.49419,-3.69041 3.63906,-7.99271 l 3.82826,-7.678968 9.6298,16.856248 c 9.64171,16.8771 10.32429,18.08386 10.18373,18.00403 -0.0415,-0.0236 -6.50483,-0.13882 -14.36295,-0.2561 z m -31.54534,-14.865 6.6745,-11.24314 8.41836,-7.037079 c 4.6301,-3.870394 8.48123,-7.03708 8.55807,-7.03708 0.0768,0 -0.20959,0.625078 -0.63651,1.389063 -0.42692,0.763984 -4.743,8.651875 -9.59129,17.528646 -4.84829,8.87677 -8.8859,16.21873 -8.97247,16.31546 -0.0866,0.0967 -2.06241,0.36443 -4.39074,0.59489 -2.32833,0.23046 -4.79608,0.48952 -5.48388,0.5757 l -1.25054,0.15669 z M 126.5475,122.5189 c -2.21075,-1.16782 -2.5976,-2.55469 -2.59951,-9.31947 l -0.002,-5.22552 h 1.03073 1.03073 l 0.10288,5.22552 c 0.084,4.26786 0.18509,5.37883 0.55148,6.06205 1.87681,3.49976 6.98104,2.52028 7.84437,-1.50531 0.15825,-0.7379 0.28773,-3.24078 0.28773,-5.56195 v -4.22031 h 1.05833 1.05834 v 7.40833 7.40834 h -1.05834 c -1.05569,0 -1.05833,-0.003 -1.05833,-1.04272 0,-1.348 -0.30453,-1.50778 -1.02259,-0.53654 -0.31767,0.42967 -1.04623,1.0203 -1.61904,1.31253 -1.40714,0.71787 -4.2417,0.71537 -5.6053,-0.005 z m 32.02033,0.18307 c -1.85694,-0.69189 -3.25415,-2.20309 -3.92056,-4.24041 -0.46371,-1.41766 -0.2507,-5.58831 0.34291,-6.71377 1.33571,-2.53248 3.69944,-4.03146 6.36418,-4.03588 4.12346,-0.007 6.1145,1.98927 6.66117,6.67814 l 0.17738,1.52136 h -5.71903 -5.71903 l 0.006,0.85989 c 0.0261,3.86867 4.62188,5.87531 8.76268,3.82605 l 1.28568,-0.63628 v 0.98915 c 0,0.91378 -0.0857,1.02487 -1.12448,1.45793 -1.4829,0.61819 -5.77097,0.79523 -7.11671,0.29382 z m 6.95767,-9.69969 c -0.22552,-2.24518 -1.7168,-3.56434 -4.02939,-3.56434 -1.90348,0 -3.37307,0.90382 -4.18004,2.57079 -1.03272,2.13332 -1.14994,2.07303 3.87055,1.99085 l 4.43177,-0.0725 z m -77.66277,2.98866 c 1.531467,-3.75452 3.443048,-8.46352 4.247957,-10.46443 l 1.463472,-3.63802 h 1.258815 1.258815 l 3.920211,9.59115 c 2.15611,5.27513 4.07924,9.9781 4.27362,10.45104 l 0.35342,0.8599 h -1.30243 -1.30243 l -1.14852,-2.90874 -1.148516,-2.90874 -4.92951,-0.002 -4.929509,-0.002 -1.059794,2.84427 -1.059794,2.84427 -1.340147,0.0795 -1.340146,0.0795 z m 10.948372,-1.25357 c 0,-0.0636 -0.832883,-2.23653 -1.85085,-4.82865 -1.017968,-2.59211 -1.851405,-4.9213 -1.852083,-5.17596 -6.79e-4,-0.25466 -0.120296,-0.46302 -0.265817,-0.46302 -0.145521,0 -0.264583,0.12879 -0.264583,0.28619 0,0.1574 -0.833438,2.45291 -1.852084,5.10114 -1.018646,2.64822 -1.852083,4.90069 -1.852083,5.00548 0,0.10479 1.785937,0.19052 3.96875,0.19052 2.182812,0 3.96875,-0.0521 3.96875,-0.1157 z m 7.937498,7.78046 c 0,-0.15001 2.1412,-3.03727 4.75821,-6.41615 l 4.75821,-6.1434 -4.36133,-0.0725 -4.36134,-0.0725 v -0.91964 -0.91965 h 6.08542 c 3.94124,0 6.08542,0.0946 6.08542,0.2686 0,0.14773 -2.08344,2.97547 -4.62986,6.28386 -2.54642,3.30838 -4.63001,6.10454 -4.63021,6.21368 -1.9e-4,0.10915 2.08324,0.19844 4.62986,0.19844 h 4.63021 v 0.92604 0.92605 h -6.4823 c -4.27445,0 -6.48229,-0.0929 -6.48229,-0.27275 z m 36.5125,-7.13559 v -7.40833 h 1.19063 1.19062 v 1.45521 c 0,0.80036 0.11906,1.4552 0.26459,1.4552 0.14552,0 0.26458,-0.15146 0.26458,-0.33659 0,-0.18512 0.36347,-0.77754 0.8077,-1.31647 0.86872,-1.0539 2.2519,-1.62822 3.56271,-1.47929 0.72217,0.082 0.79585,0.18478 0.87028,1.21335 l 0.0813,1.1237 -0.74002,-0.28136 c -0.85544,-0.32524 -2.27289,-0.11996 -3.15284,0.45661 -0.33558,0.21988 -0.91349,1.0085 -1.28424,1.75249 -0.64649,1.29735 -0.67408,1.54551 -0.67408,6.06326 v 4.71056 h -1.19062 -1.19063 z"
       id="path1" /></g></svg>
