<?xml version="1.0" encoding="UTF-8" standalone="no"?>
<!-- Created with Inkscape (http://www.inkscape.org/) -->

<svg
   width="135.2941mm"
   height="25.888304mm"
   viewBox="0 0 135.2941 25.888304"
   version="1.1"
   id="svg1"
   xml:space="preserve"
   xmlns="http://www.w3.org/2000/svg"
   xmlns:svg="http://www.w3.org/2000/svg"><defs
     id="defs1" /><g
     id="layer1"
     transform="translate(-35.812828,-105.50522)"><path
       style="fill:#096e49;fill-opacity:1"
       d="m 88.29234,121.20707 v -10.18646 h 2.116667 c 2.074501,0 2.116666,0.013 2.116666,0.65348 v 0.65349 l 0.952654,-0.64649 c 3.430921,-2.32829 8.219893,-0.32238 9.516553,3.9861 1.90857,6.34167 -3.854666,12.32642 -9.212436,9.56653 l -1.256771,-0.64739 v 3.4036 3.40359 H 90.409007 88.29234 Z m 9.237878,0.54082 c 0.963033,-0.49801 1.610039,-1.88491 1.610039,-3.45124 0,-4.64445 -6.063132,-5.44551 -6.74608,-0.89128 -0.523915,3.49372 2.246983,5.83651 5.136041,4.34252 z m 8.730792,8.95512 c 0,-0.11411 0.65182,-0.34545 1.42038,-1.10446 l 1.39739,-1.38003 2.24063,-0.004 c 3.47847,-0.006 4.22502,-0.49735 4.22502,-2.78295 v -0.96076 l -0.9327,0.57644 c -5.85727,3.61999 -12.48847,-4.2633 -9.05898,-10.76948 1.82545,-3.46312 6.87532,-4.67289 9.51897,-2.28041 0.44261,0.40055 0.47271,0.38306 0.47271,-0.27468 v -0.70246 h 2.11666 2.11667 l -0.001,7.87135 c -0.002,9.77043 0.80253,12.11358 -2.27027,12.33906 -1.37311,0.10075 -11.25733,0.1841 -11.80938,-0.0417 z m 8.19979,-9.25068 c 2.64353,-2.22438 1.18546,-6.99214 -2.13833,-6.99214 -2.30204,0 -3.46822,1.29 -3.46822,3.83646 0,3.27848 3.27195,5.12012 5.60655,3.15568 z M 71.863771,116.9846 c 1.588329,-8.59207 13.735518,-8.20699 14.262854,0.45215 l 0.108763,1.78594 h -5.217916 -5.217915 l 0.176872,0.72761 c 0.205652,0.84601 0.58708,1.90616 1.660365,2.30316 1.914147,0.70803 4.89389,0.15806 4.920969,-1.41723 0.0019,-0.11118 0.982076,-0.0406 1.920982,-0.0398 0.890696,8e-4 1.677573,-0.0905 1.680663,0.0264 0.05809,2.19777 -2.065731,4.04878 -3.73758,4.76257 -1.369247,0.58459 -5.41428,1.30055 -7.921626,-0.55504 -2.516156,-1.8621 -2.971185,-6.23491 -2.636431,-8.04576 z m 10.038367,-1.20309 c -0.900354,-2.58275 -5.15288,-2.43882 -5.910059,0.20004 l -0.170815,0.59531 h 3.179066 3.179066 z m 54.147502,9.73781 c -5.53439,-1.92563 -3.23915,-8.65543 2.95766,-8.67207 2.39922,-0.006 3.15055,-0.38163 2.84916,-1.42275 -0.58087,-2.00655 -3.76135,-1.78449 -4.77592,0.10341 -0.18555,0.34527 -0.16925,0.22225 -2.18724,0.23781 -1.80541,0.0139 -1.81736,0.0941 -1.81736,-0.27 0,-4.71683 8.34255,-6.43058 11.79232,-2.5015 1.16288,1.32445 1.23554,1.76076 1.23554,7.41907 v 5.02708 l -2.05052,0.0773 -2.05052,0.0773 v -0.85438 -0.85438 l -0.74752,0.71617 c -1.2119,1.16108 -3.39751,1.54607 -5.2056,0.91696 z m 4.91514,-3.63044 c 0.42537,-0.42537 1.04367,-0.89392 1.04367,-1.11149 0.0748,-0.21182 0.21974,-1.23964 -0.0407,-1.25689 -0.47793,-0.0316 -3.38667,-0.21452 -4.20211,0.44579 -0.65573,0.53098 -0.78504,1.66748 -0.2615,2.2983 0.60425,0.72808 2.57027,0.51464 3.46061,-0.3757 z m -105.059942,3.4716 c 0,-0.13817 0.901809,-1.09945 2.00402,-2.13617 l 2.00402,-1.88495 h 2.244443 c 4.947505,0 7.747251,-2.12375 7.764624,-5.88987 0.01692,-3.66827 -2.602429,-5.71772 -7.336377,-5.74019 l -2.447396,-0.0116 v 3.30729 3.30729 h -2.116667 -2.116667 v -5.44311 l -0.09201,-5.25911 5.582112,-0.0987 c 9.184029,-0.16241 11.696075,2.89432 12.461351,9.49255 0.587418,5.06473 -3.240872,10.55228 -12.593645,10.5222 -5.296551,-0.017 -5.292091,0.13024 -5.325283,-0.0192 z m 86.518752,-7.06383 v -7.27604 h 2.11667 2.11667 v 0.98491 c 0,0.96795 0.007,0.97476 0.41293,0.39536 0.63711,-0.90958 1.40905,-1.33427 3.41039,-1.38027 h 1.46835 v 1.68993 1.68994 l -1.78665,-0.0575 c -3.19825,0.17551 -3.5013,1.04661 -3.50355,7.19478 l -0.001,4.03489 h -2.11667 -2.11667 z m 25.92917,0 v -7.27604 h 2.11667 2.11667 v 0.82116 0.82116 l 0.91487,-0.80328 c 1.79432,-1.57543 4.88708,-1.44934 6.60574,0.26931 0.85891,0.85892 1.07938,0.96887 1.26775,0.63228 0.75772,-1.35397 4.29188,-2.35736 6.14686,-1.74516 3.07174,1.01376 3.58561,2.32139 3.58561,9.12415 v 5.43246 h -1.98438 -1.98437 l -0.006,-4.03489 c -0.0108,-7.28786 -0.74924,-7.07243 -2.94989,-7.14977 -1.3751,-0.0483 -2.29824,0.60274 -2.25197,1.7283 l -0.0337,4.61293 -0.0825,4.88943 -2.10031,-0.046 -1.64026,0.092 v -4.64335 c 0,-5.86327 -0.34452,-6.7385 -2.91113,-6.58748 -1.78256,0.10489 -2.57599,1.14894 -2.57599,6.39662 v 4.7422 h -2.11667 -2.11667 z"
       id="path1" /><path
       d="m 56.505002,117.11613 c 1.588329,-8.59207 13.735518,-8.20699 14.262854,0.45215 l 0.108763,1.78594 h -5.217916 -5.217915 l 0.176872,0.72761 c 0.205652,0.84601 0.58708,1.90616 1.660365,2.30316 1.914147,0.70803 4.89389,0.15806 4.920969,-1.41723 0.0019,-0.11118 0.982076,-0.0406 1.920982,-0.0398 0.890696,8e-4 1.677573,-0.0905 1.680663,0.0264 0.05809,2.19777 -2.065731,4.04878 -3.73758,4.76257 -1.369247,0.58459 -5.41428,1.30055 -7.921626,-0.55504 -2.516156,-1.8621 -2.971185,-6.23491 -2.636431,-8.04576 z m 10.038367,-1.20309 c -0.900354,-2.58275 -5.15288,-2.43882 -5.910059,0.20004 l -0.170815,0.59531 h 3.179066 3.179066 z"
       style="fill:#096e49;fill-opacity:1"
       id="path1-7" /></g></svg>
