<?xml version="1.0" encoding="UTF-8" standalone="no"?>
<!-- Created with Inkscape (http://www.inkscape.org/) -->

<svg
   width="80.827408mm"
   height="34.317455mm"
   viewBox="0 0 80.827408 34.317455"
   version="1.1"
   id="svg1"
   xml:space="preserve"
   xmlns="http://www.w3.org/2000/svg"
   xmlns:svg="http://www.w3.org/2000/svg"><defs
     id="defs1"><clipPath
       id="0c055cf285"><rect
         x="0"
         width="213"
         y="0"
         height="78"
         id="rect8" /></clipPath><clipPath
       id="5fbfcc288c"><rect
         x="0"
         width="234"
         y="0"
         height="66"
         id="rect9" /></clipPath></defs><g
     id="layer1"
     transform="translate(-68.558547,-68.852912)"><g
       id="g2"
       transform="matrix(0.35277779,0,0,0.35277779,-111.26137,10.498342)"><g
         transform="translate(507.86121,151.77821)"
         id="g37"
         style="fill:#62a783;fill-opacity:1"><g
           clip-path="url(#0c055cf285)"
           id="g36"
           style="fill:#62a783;fill-opacity:1"><g
             fill="#f6f4f0"
             fill-opacity="1"
             id="g23"
             style="fill:#62a783;fill-opacity:1"><g
               transform="translate(0.401395,62.198815)"
               id="g22"
               style="fill:#62a783;fill-opacity:1"><g
                 id="g21"
                 style="fill:#62a783;fill-opacity:1"><path
                   d="m 45.3125,-15.828125 v 5.09375 c 0,1.492187 -0.296875,2.777344 -0.890625,3.859375 -0.585937,1.085938 -1.085937,1.882812 -1.5,2.390625 -0.71875,0.929687 -1.515625,1.636719 -2.390625,2.125 -0.875,0.492187 -1.496094,0.867187 -1.859375,1.125 -1.074219,0.617187 -2.230469,0.976563 -3.46875,1.078125 C 33.972656,-0.0507812 33.175781,0 32.8125,0 H 2.546875 C 2.140625,0 1.957031,-0.207031 2,-0.625 2.101562,-1.394531 2.207031,-2.703125 2.3125,-4.546875 2.414062,-6.398438 2.476562,-8.445312 2.5,-10.6875 c 0.03125,-2.238281 0.054688,-4.347656 0.078125,-6.328125 0.03125,-1.988281 0.019531,-3.5 -0.03125,-4.53125 -0.054687,-0.96875 -0.105469,-2.40625 -0.15625,-4.3125 -0.054687,-1.90625 -0.09375,-3.882813 -0.125,-5.9375 -0.023437,-2.0625 -0.046875,-3.914063 -0.078125,-5.5625 -0.023438,-1.65625 -0.03125,-2.738281 -0.03125,-3.25 0,-0.71875 0.00781,-1.644531 0.03125,-2.78125 0.03125,-1.132813 0.046875,-2.160156 0.046875,-3.078125 0,-0.925781 0,-1.441406 0,-1.546875 0,-0.363281 0.179687,-0.546875 0.546875,-0.546875 h 30.265625 c 1.125,0 2.378906,0.132812 3.765625,0.390625 1.394531,0.261719 2.453125,0.648437 3.171875,1.15625 0.625,0.40625 1.304687,0.949219 2.046875,1.625 0.75,0.667969 1.378906,1.648437 1.890625,2.9375 0.519531,1.28125 0.78125,3.054687 0.78125,5.3125 0,1.75 -0.234375,3.132813 -0.703125,4.140625 -0.460938,1 -0.96875,1.914062 -1.53125,2.734375 -0.625,0.824219 -1.296875,1.46875 -2.015625,1.9375 -0.71875,0.460937 -1.414063,0.871094 -2.078125,1.234375 -0.46875,0.199219 -0.808594,0.453125 -1.015625,0.765625 -0.199219,0.3125 0.03516,0.648437 0.703125,1 0.613281,0.367187 1.304688,0.652344 2.078125,0.859375 0.769531,0.199219 1.644531,0.761719 2.625,1.6875 0.820313,0.875 1.453125,1.855469 1.890625,2.9375 0.4375,1.085938 0.65625,2.421875 0.65625,4.015625 z M 24.171875,-8.5625 c 0.613281,-0.78125 0.878906,-1.628906 0.796875,-2.546875 -0.07422,-0.925781 -0.109375,-1.828125 -0.109375,-2.703125 -0.05469,-0.925781 -0.132813,-1.929688 -0.234375,-3.015625 -0.105469,-1.082031 -0.621094,-1.90625 -1.546875,-2.46875 -0.40625,-0.3125 -0.84375,-0.414063 -1.3125,-0.3125 -0.5625,0 -0.84375,0.359375 -0.84375,1.078125 0.05078,0.617188 0.05078,1.480469 0,2.59375 -0.05469,1.105469 -0.105469,2.234375 -0.15625,3.390625 -0.05469,1.15625 -0.05469,2.171875 0,3.046875 0.05078,0.875 0.207031,1.390625 0.46875,1.546875 0.507813,0.367187 1.035156,0.460937 1.578125,0.28125 0.539062,-0.1875 0.992188,-0.484375 1.359375,-0.890625 z m -1.09375,-20 c 1.1875,-0.46875 1.859375,-1.304688 2.015625,-2.515625 0.15625,-1.207031 0.234375,-2.300781 0.234375,-3.28125 -0.05469,-0.976563 -0.121094,-1.925781 -0.203125,-2.84375 -0.07422,-0.925781 -0.46875,-1.804687 -1.1875,-2.640625 -0.574219,-0.613281 -1.21875,-0.738281 -1.9375,-0.375 -0.460938,0.25 -0.6875,0.609375 -0.6875,1.078125 0.05078,1.855469 0.03516,3.5 -0.04687,4.9375 -0.07422,1.4375 -0.164063,3.085937 -0.265625,4.9375 0,0.417969 0.242188,0.679687 0.734375,0.78125 0.488281,0.105469 0.9375,0.07813 1.34375,-0.07813 z m 0,0"
                   id="path20"
                   style="fill:#62a783;fill-opacity:1" /></g></g></g><g
             fill="#f6f4f0"
             fill-opacity="1"
             id="g26"
             style="fill:#62a783;fill-opacity:1"><g
               transform="translate(46.483829,62.198815)"
               id="g25"
               style="fill:#62a783;fill-opacity:1"><g
                 id="g24"
                 style="fill:#62a783;fill-opacity:1"><path
                   d="M 36.828125,-1.15625 C 35.390625,-0.644531 33.9375,-0.320312 32.46875,-0.1875 31,-0.0625 29.957031,0 29.34375,0 H 16.359375 C 14.304688,0 12.1875,-0.460938 10,-1.390625 7.8125,-2.316406 6.125,-3.601562 4.9375,-5.25 4.113281,-6.4375 3.492188,-7.773438 3.078125,-9.265625 c -0.40625,-1.488281 -0.679687,-2.941406 -0.8125,-4.359375 -0.125,-1.414062 -0.1875,-2.585938 -0.1875,-3.515625 v -30.875 c 0,-0.363281 0.128906,-0.546875 0.390625,-0.546875 H 20.375 c 0.257812,0 0.390625,0.183594 0.390625,0.546875 0,2.824219 0,5.652344 0,8.484375 0,0.71875 0,1.789062 0,3.203125 0,1.417969 -0.01563,2.921875 -0.04687,4.515625 -0.02344,1.59375 -0.02344,3.046875 0,4.359375 0.03125,1.3125 0.07031,2.230469 0.125,2.75 0.05078,1.085937 0.15625,2.152344 0.3125,3.203125 0.15625,1.054688 0.460938,1.789062 0.921875,2.203125 0.519531,0.460937 1.035156,0.617187 1.546875,0.46875 0.507812,-0.15625 0.867188,-0.335937 1.078125,-0.546875 0.5625,-0.769531 0.84375,-1.695312 0.84375,-2.78125 0,-1.082031 0.02344,-2.140625 0.07813,-3.171875 0,-0.507813 0.0078,-1.472656 0.03125,-2.890625 0.03125,-1.414062 0.04687,-2.984375 0.04687,-4.703125 0,-1.726563 0,-3.363281 0,-4.90625 0,-1.539063 0.02344,-2.722656 0.07813,-3.546875 0,-1.132812 0,-2.253906 0,-3.359375 0,-1.113281 -0.02734,-2.207031 -0.07813,-3.28125 0,-0.363281 0.128906,-0.546875 0.390625,-0.546875 H 45.01563 c 0.25,0 0.375,0.183594 0.375,0.546875 V -18.6875 c 0,2.117188 -0.117187,4.34375 -0.34375,6.6875 -0.230469,2.335938 -0.992187,4.328125 -2.28125,5.984375 -0.875,1.074219 -1.804687,2.039063 -2.78125,2.890625 -0.96875,0.84375 -2.023437,1.5 -3.15625,1.96875 z m 0,0"
                   id="path23"
                   style="fill:#62a783;fill-opacity:1" /></g></g></g><g
             fill="#f6f4f0"
             fill-opacity="1"
             id="g29"
             style="fill:#62a783;fill-opacity:1"><g
               transform="translate(93.029401,62.198815)"
               id="g28"
               style="fill:#62a783;fill-opacity:1"><g
                 id="g27"
                 style="fill:#62a783;fill-opacity:1"><path
                   d="m 2.3125,-48.5625 h 21.390625 c 0.5625,0 0.84375,0.308594 0.84375,0.921875 -0.15625,1.5 -0.25,3.5625 -0.28125,6.1875 -0.02344,2.625 -0.03125,5.46875 -0.03125,8.53125 0,3.0625 0.02344,6.046875 0.07813,8.953125 0.05078,2.90625 0.08594,5.46875 0.109375,7.6875 0.03125,2.210938 0.07031,3.75 0.125,4.625 0,1.804688 0.05078,3.59375 0.15625,5.375 0.101563,1.773438 0.234375,3.558594 0.390625,5.359375 C 25.144531,-0.304688 24.859375,0 24.234375,0 H 2.390625 C 2.179688,0 2.101562,-0.128906 2.15625,-0.390625 2.257812,-1.054688 2.335938,-2.289062 2.390625,-4.09375 c 0.050781,-1.800781 0.078125,-3.820312 0.078125,-6.0625 0,-2.238281 -0.015625,-4.347656 -0.046875,-6.328125 C 2.398438,-18.460938 2.363281,-19.96875 2.3125,-21 c 0,-1.238281 -0.015625,-2.859375 -0.046875,-4.859375 C 2.242188,-27.867188 2.21875,-30.03125 2.1875,-32.34375 2.164062,-34.664062 2.140625,-36.921875 2.109375,-39.109375 2.085938,-41.296875 2.0625,-43.210938 2.03125,-44.859375 2.007812,-46.503906 2,-47.632812 2,-48.25 c 0.050781,-0.05078 0.15625,-0.15625 0.3125,-0.3125 z m 0,0"
                   id="path26"
                   style="fill:#62a783;fill-opacity:1" /></g></g></g><g
             fill="#f6f4f0"
             fill-opacity="1"
             id="g32"
             style="fill:#62a783;fill-opacity:1"><g
               transform="translate(118.96514,62.198815)"
               id="g31"
               style="fill:#62a783;fill-opacity:1"><g
                 id="g30"
                 style="fill:#62a783;fill-opacity:1"><path
                   d="m 45.3125,-7.796875 c 0,0.367187 0.0078,0.933594 0.03125,1.703125 0.03125,0.773438 0.05469,1.585938 0.07813,2.4375 0.03125,0.84375 0.05469,1.574219 0.07813,2.1875 0.03125,0.617188 0.04687,0.921875 0.04687,0.921875 C 45.546875,-0.179688 45.394531,0 45.09375,0 H 2.546875 C 2.285156,0 2.15625,-0.179688 2.15625,-0.546875 V -1.78125 c 0,-0.050781 0,-0.078125 0,-0.078125 0,-0.09375 0,-0.191406 0,-0.296875 V -26.25 c 0,-2.007812 0,-4.015625 0,-6.015625 0,-2.007813 0.050781,-4.019531 0.15625,-6.03125 0,-1.800781 -0.027344,-3.578125 -0.078125,-5.328125 0,-0.769531 -0.015625,-1.515625 -0.046875,-2.234375 -0.023438,-0.71875 -0.00781,-1.460937 0.046875,-2.234375 0.050781,-0.3125 0.207031,-0.46875 0.46875,-0.46875 h 21.6875 c 0.257813,0 0.390625,0.183594 0.390625,0.546875 0,1.648437 0.05078,3.28125 0.15625,4.90625 0.101562,1.617187 0.179688,3.246094 0.234375,4.890625 0.05078,1.085938 0.07813,2.15625 0.07813,3.21875 0,1.054688 0,2.089844 0,3.109375 0.05078,0.730469 0.05078,1.777344 0,3.140625 -0.05469,1.355469 -0.105469,2.679688 -0.15625,3.96875 -0.05469,1.28125 -0.05469,2.132812 0,2.546875 0,0.667969 0,1.367187 0,2.09375 0,0.71875 0.175781,1.308594 0.53125,1.765625 0.207031,0.3125 0.800781,0.523438 1.78125,0.625 0.976562,0.09375 2.003906,0.140625 3.078125,0.140625 1.082031,0 1.882813,0 2.40625,0 0.507813,0 1.304687,-0.0078 2.390625,-0.03125 1.082031,-0.01953 2.253906,-0.05469 3.515625,-0.109375 1.257813,-0.05078 2.46875,-0.101562 3.625,-0.15625 1.15625,-0.05078 2.066406,-0.07813 2.734375,-0.07813 0.257812,0.05469 0.363281,0.203125 0.3125,0.453125 0,0.105469 0,0.496094 0,1.171875 0,0.667969 -0.01563,1.359375 -0.04687,2.078125 -0.02344,0.71875 -0.03125,1.261719 -0.03125,1.625 -0.05469,0.824219 -0.07813,1.648438 -0.07813,2.46875 0,0.824219 0,1.621094 0,2.390625 z m 0,0"
                   id="path29"
                   style="fill:#62a783;fill-opacity:1" /></g></g></g><g
             fill="#f6f4f0"
             fill-opacity="1"
             id="g35"
             style="fill:#62a783;fill-opacity:1"><g
               transform="translate(165.43352,62.198815)"
               id="g34"
               style="fill:#62a783;fill-opacity:1"><g
                 id="g33"
                 style="fill:#62a783;fill-opacity:1"><path
                   d="m 45.234375,-22.703125 c 0,1.699219 -0.08984,3.476563 -0.265625,5.328125 -0.179688,1.855469 -0.421875,3.246094 -0.734375,4.171875 0,0 -0.273437,0.699219 -0.8125,2.09375 -0.542969,1.386719 -1.375,2.773437 -2.5,4.15625 -0.574219,0.625 -1.542969,1.4375 -2.90625,2.4375 -1.355469,1 -2.703125,1.789063 -4.046875,2.359375 -1.648438,0.667969 -3.257812,1.15625 -4.828125,1.46875 -1.5625,0.304688 -2.65625,0.453125 -3.28125,0.453125 -0.460937,0.054687 -1.179687,0.09375 -2.15625,0.125 -0.980469,0.0234375 -1.960937,0.03125 -2.9375,0.03125 -0.980469,0 -1.699219,0 -2.15625,0 C 18.554688,-0.078125 18,-0.0625 16.9375,-0.03125 15.882812,-0.0078125 14.585938,0 13.046875,0 11.503906,0 9.957031,0 8.40625,0 6.863281,0 5.578125,0 4.546875,0 3.523438,0 3.015625,0 3.015625,0 2.492188,0 2.257812,-0.253906 2.3125,-0.765625 2.414062,-1.179688 2.476562,-2.132812 2.5,-3.625 c 0.03125,-1.5 0.046875,-3.210938 0.046875,-5.140625 0,-1.925781 0,-3.773437 0,-5.546875 0,-1.78125 -0.027344,-3.1875 -0.078125,-4.21875 C 2.414062,-20.789062 2.335938,-23.050781 2.234375,-25.3125 2.128906,-27.582031 2.050781,-29.847656 2,-32.109375 v -13.28125 c 0.050781,-0.820313 0.101562,-1.671875 0.15625,-2.546875 0,-0.414062 0.207031,-0.625 0.625,-0.625 h 21 c 0,0 -0.246094,0 -0.734375,0 -0.492187,0 -0.945313,0 -1.359375,0 -0.40625,0 -0.511719,0 -0.3125,0 0.207031,0 1.035156,0 2.484375,0 2.875,0 5.394531,0.296875 7.5625,0.890625 2.164063,0.59375 4.40625,1.84375 6.71875,3.75 1.644531,1.28125 2.914063,2.824219 3.8125,4.625 0.90625,1.804687 1.550781,3.464844 1.9375,4.984375 0.382813,1.511719 0.628906,2.554688 0.734375,3.125 0.101562,0.5625 0.207031,1.414062 0.3125,2.546875 0.101562,1.136719 0.175781,2.273437 0.21875,3.40625 0.05078,1.125 0.07813,1.96875 0.07813,2.53125 z m -20.0625,3.09375 c 0.101563,-0.5625 0.164063,-1.367187 0.1875,-2.421875 0.03125,-1.0625 0.03125,-2.144531 0,-3.25 -0.02344,-1.101562 -0.05859,-1.96875 -0.109375,-2.59375 -0.210938,-1.800781 -0.574219,-2.96875 -1.09375,-3.5 -0.511719,-0.539062 -0.996094,-0.8125 -1.453125,-0.8125 -0.46875,0 -0.808594,0.195312 -1.015625,0.578125 -0.199219,0.386719 -0.296875,1.195313 -0.296875,2.421875 v 9.5 c 0,0.929688 0.0625,1.742188 0.1875,2.4375 0.125,0.6875 0.523437,1.03125 1.203125,1.03125 0.71875,0 1.226562,-0.238281 1.53125,-0.71875 0.3125,-0.488281 0.597656,-1.378906 0.859375,-2.671875 z m 0,0"
                   id="path32"
                   style="fill:#62a783;fill-opacity:1" /></g></g></g></g></g><g
         transform="translate(506.86121,210.77821)"
         id="g57"
         style="fill:#62a783;fill-opacity:1"><g
           clip-path="url(#5fbfcc288c)"
           id="g56"
           style="fill:#62a783;fill-opacity:1"><g
             fill="#f6f4f1"
             fill-opacity="1"
             id="g40"
             style="fill:#62a783;fill-opacity:1"><g
               transform="translate(1.187871,51.914135)"
               id="g39"
               style="fill:#62a783;fill-opacity:1"><g
                 id="g38"
                 style="fill:#62a783;fill-opacity:1"><path
                   d="m 37.96875,-13.265625 v 4.28125 c 0,1.25 -0.25,2.328125 -0.75,3.234375 -0.492188,0.898438 -0.90625,1.5625 -1.25,2 -0.605469,0.773438 -1.277344,1.367188 -2.015625,1.78125 C 33.222656,-1.5625 32.707031,-1.25 32.40625,-1.03125 31.5,-0.519531 30.523438,-0.21875 29.484375,-0.125 28.453125,-0.0390625 27.785156,0 27.484375,0 H 2.140625 C 1.785156,0 1.632812,-0.171875 1.6875,-0.515625 1.769531,-1.160156 1.851562,-2.257812 1.9375,-3.8125 2.019531,-5.363281 2.070312,-7.078125 2.09375,-8.953125 2.125,-10.828125 2.148438,-12.59375 2.171875,-14.25 c 0.019531,-1.664062 0.00781,-2.929688 -0.03125,-3.796875 -0.054687,-0.820313 -0.101563,-2.03125 -0.140625,-3.625 -0.042969,-1.59375 -0.074219,-3.25 -0.09375,-4.96875 -0.023438,-1.726563 -0.042969,-3.28125 -0.0625,-4.65625 -0.023438,-1.382813 -0.03125,-2.296875 -0.03125,-2.734375 0,-0.601562 0.00781,-1.378906 0.03125,-2.328125 0.019531,-0.945313 0.03125,-1.804687 0.03125,-2.578125 0,-0.78125 0,-1.210938 0,-1.296875 0,-0.300781 0.148438,-0.453125 0.453125,-0.453125 H 27.6875 c 0.945312,0 2.003906,0.109375 3.171875,0.328125 1.164063,0.210937 2.050781,0.53125 2.65625,0.96875 0.507813,0.34375 1.078125,0.796875 1.703125,1.359375 0.625,0.5625 1.148438,1.386719 1.578125,2.46875 0.4375,1.074219 0.65625,2.558594 0.65625,4.453125 0,1.460937 -0.195313,2.609375 -0.578125,3.453125 -0.386719,0.84375 -0.820312,1.609375 -1.296875,2.296875 -0.523437,0.6875 -1.085937,1.230469 -1.6875,1.625 -0.605469,0.386719 -1.183594,0.730469 -1.734375,1.03125 -0.398438,0.167969 -0.683594,0.382813 -0.859375,0.640625 -0.167969,0.261719 0.03125,0.542969 0.59375,0.84375 0.519531,0.304688 1.101563,0.542969 1.75,0.71875 0.644531,0.167969 1.378906,0.640625 2.203125,1.421875 0.6875,0.730469 1.210938,1.546875 1.578125,2.453125 0.363281,0.90625 0.546875,2.027344 0.546875,3.359375 z M 20.25,-7.1875 c 0.507812,-0.644531 0.734375,-1.351562 0.671875,-2.125 -0.0625,-0.78125 -0.09375,-1.535156 -0.09375,-2.265625 C 20.785156,-12.359375 20.71875,-13.195312 20.625,-14.09375 20.539062,-15 20.113281,-15.691406 19.34375,-16.171875 19,-16.429688 18.628906,-16.519531 18.234375,-16.4375 c -0.46875,0 -0.703125,0.304688 -0.703125,0.90625 0.03906,0.523438 0.03906,1.246094 0,2.171875 -0.04297,0.929687 -0.08594,1.875 -0.125,2.84375 -0.04297,0.96875 -0.04297,1.824219 0,2.5625 0.03906,0.730469 0.164062,1.164063 0.375,1.296875 0.4375,0.304688 0.878906,0.382812 1.328125,0.234375 0.457031,-0.15625 0.835937,-0.410156 1.140625,-0.765625 z m -0.90625,-16.75 c 0.988281,-0.382812 1.546875,-1.082031 1.671875,-2.09375 0.132813,-1.019531 0.203125,-1.9375 0.203125,-2.75 -0.04297,-0.820312 -0.101562,-1.617188 -0.171875,-2.390625 -0.0625,-0.78125 -0.398437,-1.515625 -1,-2.203125 -0.46875,-0.519531 -1.007813,-0.628906 -1.609375,-0.328125 -0.386719,0.21875 -0.578125,0.523437 -0.578125,0.90625 0.03906,1.554687 0.02344,2.933594 -0.04687,4.140625 -0.0625,1.210938 -0.136719,2.589844 -0.21875,4.140625 0,0.34375 0.203125,0.5625 0.609375,0.65625 0.414063,0.08594 0.796875,0.05859 1.140625,-0.07813 z m 0,0"
                   id="path37"
                   style="fill:#62a783;fill-opacity:1" /></g></g></g><g
             fill="#f6f4f1"
             fill-opacity="1"
             id="g43"
             style="fill:#62a783;fill-opacity:1"><g
               transform="translate(39.804174,51.914135)"
               id="g42"
               style="fill:#62a783;fill-opacity:1"><g
                 id="g41"
                 style="fill:#62a783;fill-opacity:1"><path
                   d="m 37.71875,-10.734375 c 0,0.5625 0,1.179687 0,1.84375 0,0.667969 0,1.234375 0,1.703125 0,0.355469 0.0078,0.875 0.03125,1.5625 0.01953,0.6875 0.05078,1.433594 0.09375,2.234375 0.03906,0.792969 0.07031,1.46875 0.09375,2.03125 0.01953,0.5625 0.03125,0.84375 0.03125,0.84375 C 37.96875,-0.171875 37.796875,0 37.453125,0 h -35 C 1.847656,0 1.566406,-0.300781 1.609375,-0.90625 1.742188,-4.132812 1.820312,-7.378906 1.84375,-10.640625 1.863281,-13.898438 1.894531,-17.164062 1.9375,-20.4375 1.976562,-23.632812 2.097656,-26.847656 2.296875,-30.078125 2.492188,-33.316406 2.351562,-36.53125 1.875,-39.71875 1.832031,-39.976562 1.894531,-40.203125 2.0625,-40.390625 2.238281,-40.585938 2.457031,-40.6875 2.71875,-40.6875 H 37.1875 c 0.257812,0 0.4375,0.132812 0.53125,0.390625 0,0.04297 -0.01563,0.234375 -0.04687,0.578125 -0.02344,0.34375 -0.05469,0.6875 -0.09375,1.03125 0,0.21875 -0.02344,0.71875 -0.0625,1.5 -0.04297,0.773438 -0.07422,1.578125 -0.09375,2.421875 -0.02344,0.835937 -0.03125,1.46875 -0.03125,1.90625 0,0.429687 0.01953,0.953125 0.0625,1.578125 0.03906,0.625 0.09375,1.1875 0.15625,1.6875 0.07031,0.5 0.109375,0.75 0.109375,0.75 0,0.34375 -0.199219,0.515625 -0.59375,0.515625 0,0 -0.421875,-0.0078 -1.265625,-0.03125 -0.835937,-0.01953 -1.902344,-0.03125 -3.203125,-0.03125 -1.292969,0 -2.664062,0 -4.109375,0 -1.4375,0 -2.773437,0.02344 -4,0.0625 -1.230469,0.04297 -2.1875,0.105469 -2.875,0.1875 -0.648437,0.08594 -1.308594,0.277344 -1.984375,0.578125 -0.667969,0.304688 -1.042969,0.84375 -1.125,1.625 -0.04297,0.46875 0.109375,0.871094 0.453125,1.203125 0.34375,0.324219 0.710937,0.570313 1.109375,0.734375 0.207031,0.04297 0.882812,0.08594 2.03125,0.125 1.144531,0.04297 2.515625,0.0625 4.109375,0.0625 1.59375,0 3.195313,-0.0078 4.8125,-0.03125 1.625,-0.01953 2.992187,-0.03125 4.109375,-0.03125 1.125,0 1.769531,0 1.9375,0 0.394531,0 0.59375,0.171875 0.59375,0.515625 v 5.375 c 0,0.480469 0,0.890625 0,1.234375 0,0.34375 0,0.710938 0,1.09375 0,0.34375 -0.199219,0.515625 -0.59375,0.515625 -0.730469,0 -1.757812,-0.0078 -3.078125,-0.03125 -1.3125,-0.01953 -2.671875,-0.05078 -4.078125,-0.09375 -1.398438,-0.03906 -2.65625,-0.07031 -3.78125,-0.09375 -1.117188,-0.01953 -1.867188,-0.03125 -2.25,-0.03125 -0.4375,0.04297 -0.96875,0.0625 -1.59375,0.0625 -0.625,0 -1.21875,0.08984 -1.78125,0.265625 -0.554688,0.167969 -0.960938,0.511719 -1.21875,1.03125 -0.4375,0.8125 -0.375,1.492188 0.1875,2.03125 0.5625,0.542969 1.1875,0.898438 1.875,1.0625 0.4375,0.09375 1.320312,0.140625 2.65625,0.140625 1.332031,0 2.847656,-0.03125 4.546875,-0.09375 1.707031,-0.07031 3.347656,-0.140625 4.921875,-0.203125 1.582031,-0.0625 2.78125,-0.113281 3.59375,-0.15625 0.394531,0 0.59375,0.171875 0.59375,0.515625 z m 0,0"
                   id="path40"
                   style="fill:#62a783;fill-opacity:1" /></g></g></g><g
             fill="#f6f4f1"
             fill-opacity="1"
             id="g46"
             style="fill:#62a783;fill-opacity:1"><g
               transform="translate(78.614527,51.914135)"
               id="g45"
               style="fill:#62a783;fill-opacity:1"><g
                 id="g44"
                 style="fill:#62a783;fill-opacity:1"><path
                   d="m 21.546875,-40.6875 h 15.71875 c 0.164063,0 0.207031,0.132812 0.125,0.390625 -0.04297,0.167969 -0.203125,0.75 -0.484375,1.75 -0.28125,0.992187 -0.621094,2.21875 -1.015625,3.6875 -0.386719,1.460937 -0.808594,2.953125 -1.265625,4.484375 -0.449219,1.53125 -0.886719,2.902344 -1.3125,4.109375 -0.648438,1.855469 -1.328125,3.59375 -2.046875,5.21875 -0.710937,1.617187 -1.3125,2.953125 -1.8125,4.015625 -0.492187,1.054688 -0.757813,1.703125 -0.796875,1.953125 -0.125,0.699219 -0.203125,1.296875 -0.234375,1.796875 -0.02344,0.492188 -0.03125,1.078125 -0.03125,1.765625 0,0.824219 -0.02344,1.65625 -0.0625,2.5 -0.04297,0.835937 -0.08594,1.664063 -0.125,2.484375 -0.04297,1.03125 -0.07422,2.078125 -0.09375,3.140625 -0.02344,1.054687 0.0078,2.09375 0.09375,3.125 0,0.1796875 -0.0625,0.265625 -0.1875,0.265625 H 9.4375 c -0.085938,0 -0.125,-0.0859375 -0.125,-0.265625 0,-0.082031 0,-0.53125 0,-1.34375 0,-0.820313 0.00781,-1.816406 0.03125,-2.984375 0.019531,-1.164062 0.039062,-2.351562 0.0625,-3.5625 0.019531,-1.207031 0.039062,-2.273438 0.0625,-3.203125 0.03125,-0.925781 0.046875,-1.539063 0.046875,-1.84375 0,-0.769531 -0.046875,-1.273437 -0.140625,-1.515625 -0.085938,-0.238281 -0.234375,-0.703125 -0.453125,-1.390625 -0.085937,-0.300781 -0.4375,-1.148437 -1.0625,-2.546875 C 7.234375,-20.0625 6.53125,-21.925781 5.75,-24.25 5.28125,-25.851562 4.785156,-27.515625 4.265625,-29.234375 3.753906,-30.960938 3.289062,-32.613281 2.875,-34.1875 c -0.40625,-1.570312 -0.761719,-2.914062 -1.0625,-4.03125 -0.304688,-1.125 -0.496094,-1.835938 -0.578125,-2.140625 -0.042969,-0.21875 0.019531,-0.328125 0.1875,-0.328125 h 15.53125 c 0.125,0 0.1875,0.08984 0.1875,0.265625 0.08203,1.679687 0.207031,3.359375 0.375,5.046875 0.175781,1.679688 0.375,3.355469 0.59375,5.03125 0.08203,0.5625 0.382813,0.84375 0.90625,0.84375 0.382813,0 0.664063,-0.28125 0.84375,-0.84375 0.175781,-0.601562 0.335937,-1.421875 0.484375,-2.453125 0.15625,-1.03125 0.296875,-2.09375 0.421875,-3.1875 0.125,-1.101563 0.238281,-2.078125 0.34375,-2.921875 0.113281,-0.84375 0.191406,-1.375 0.234375,-1.59375 0.03906,-0.125 0.109375,-0.1875 0.203125,-0.1875 z m 0,0"
                   id="path43"
                   style="fill:#62a783;fill-opacity:1" /></g></g></g><g
             fill="#f6f4f1"
             fill-opacity="1"
             id="g49"
             style="fill:#62a783;fill-opacity:1"><g
               transform="translate(116.45462,51.914135)"
               id="g48"
               style="fill:#62a783;fill-opacity:1"><g
                 id="g47"
                 style="fill:#62a783;fill-opacity:1"><path
                   d="m 37.515625,-28.140625 c 0,1.125 0,2.484375 0,4.078125 0,1.59375 0,3.1875 0,4.78125 0,1.59375 0,2.933594 0,4.015625 0,1.679687 -0.203125,3.121094 -0.609375,4.328125 -0.40625,1.210938 -0.9375,2.417969 -1.59375,3.625 -0.554688,1.042969 -1.242188,1.964844 -2.0625,2.765625 -0.824219,0.792969 -1.6875,1.46875 -2.59375,2.03125 -1.117188,0.6875 -2.246094,1.273437 -3.390625,1.75 -1.148437,0.46875 -2.667969,0.703125 -4.5625,0.703125 -0.261719,0 -0.835937,0 -1.71875,0 -0.875,0 -1.835937,0 -2.875,0 -1.03125,0 -1.949219,0 -2.75,0 -0.792969,0 -1.210937,0 -1.25,0 C 12.335938,-0.144531 10.675781,-0.585938 9.125,-1.390625 7.570312,-2.191406 6.320312,-3.066406 5.375,-4.015625 4.851562,-4.523438 4.300781,-5.273438 3.71875,-6.265625 3.132812,-7.265625 2.648438,-8.300781 2.265625,-9.375 1.878906,-10.457031 1.6875,-11.40625 1.6875,-12.21875 c 0,-0.601562 0,-1.59375 0,-2.96875 0,-1.382812 0,-2.914062 0,-4.59375 0,-1.6875 0,-3.304688 0,-4.859375 0,-1.550781 0,-2.800781 0,-3.75 0,-1.851563 0.285156,-3.484375 0.859375,-4.890625 0.582031,-1.40625 1.265625,-2.515625 2.046875,-3.328125 1.375,-1.46875 2.675781,-2.445313 3.90625,-2.9375 1.226562,-0.5 2.726562,-0.859375 4.5,-1.078125 0.03906,-0.03906 0.515625,-0.05078 1.421875,-0.03125 0.90625,0.02344 2.015625,0.03125 3.328125,0.03125 1.320312,0 2.640625,0 3.953125,0 1.3125,0 2.378906,0 3.203125,0 1.675781,0 3.226562,0.242188 4.65625,0.71875 1.425781,0.46875 2.71875,1.265625 3.875,2.390625 1.207031,1.117187 2.1875,2.546875 2.9375,4.296875 0.757812,1.75 1.140625,3.445312 1.140625,5.078125 z M 16.953125,-16.5 c 0,1.6875 0.222656,2.804688 0.671875,3.34375 0.457031,0.53125 1.03125,0.796875 1.71875,0.796875 0.863281,0 1.398438,-0.382813 1.609375,-1.15625 0.21875,-0.78125 0.328125,-1.40625 0.328125,-1.875 0,-1.644531 0.03125,-3.367187 0.09375,-5.171875 0.0625,-1.8125 0.07031,-3.320312 0.03125,-4.53125 -0.08594,-1 -0.234375,-1.84375 -0.453125,-2.53125 -0.210937,-0.6875 -0.746094,-1.03125 -1.609375,-1.03125 -0.78125,0 -1.335938,0.210938 -1.65625,0.625 -0.324219,0.40625 -0.527344,0.882812 -0.609375,1.421875 -0.08594,0.53125 -0.125,0.96875 -0.125,1.3125 0,0.4375 0,1.140625 0,2.109375 0,0.96875 0,2.058594 0,3.265625 0,1.210937 0,2.351563 0,3.421875 z m 0,0"
                   id="path46"
                   style="fill:#62a783;fill-opacity:1" /></g></g></g><g
             fill="#f6f4f1"
             fill-opacity="1"
             id="g52"
             style="fill:#62a783;fill-opacity:1"><g
               transform="translate(154.81219,51.914135)"
               id="g51"
               style="fill:#62a783;fill-opacity:1"><g
                 id="g50"
                 style="fill:#62a783;fill-opacity:1"><path
                   d="m 38.234375,-18.5 c 0,1.03125 -0.01172,2.292969 -0.03125,3.78125 -0.02344,1.492188 -0.03125,3.042969 -0.03125,4.65625 0,1.617188 -0.01563,3.136719 -0.04687,4.5625 -0.02344,1.429688 -0.03125,2.625 -0.03125,3.59375 0,0.96875 0.02344,1.542969 0.07813,1.71875 C 38.171875,-0.0625 38.125,0 38.03125,0 h -16.6875 c -0.08594,0 -0.125,-0.0390625 -0.125,-0.125 -0.179688,-0.519531 -0.34375,-1.035156 -0.5,-1.546875 -0.148438,-0.519531 -0.304688,-1.039063 -0.46875,-1.5625 -0.386719,-1.070313 -0.699219,-2.332031 -0.9375,-3.78125 -0.242188,-1.445313 -0.601562,-2.601563 -1.078125,-3.46875 -0.210937,-0.46875 -0.523437,-0.582031 -0.9375,-0.34375 -0.40625,0.230469 -0.609375,0.625 -0.609375,1.1875 -0.08594,1.386719 -0.09375,2.964844 -0.03125,4.734375 0.0625,1.761719 0.113281,3.335938 0.15625,4.71875 0,0.125 -0.04297,0.1875 -0.125,0.1875 L 1.8125,-0.0625 c -0.085938,0 -0.125,-0.039062 -0.125,-0.125 0,-3.582031 0.039062,-7.140625 0.125,-10.671875 0.082031,-3.539063 0.125,-7.101563 0.125,-10.6875 0,-1.207031 -0.011719,-2.628906 -0.03125,-4.265625 -0.023438,-1.632812 -0.03125,-3.300781 -0.03125,-5 0,-1.707031 -0.011719,-3.304688 -0.03125,-4.796875 -0.023438,-1.488281 -0.042969,-2.6875 -0.0625,-3.59375 C 1.757812,-40.109375 1.75,-40.5625 1.75,-40.5625 c 0,-0.08203 0.039062,-0.125 0.125,-0.125 h 16.234375 c 0.03906,0 0.08203,0.04297 0.125,0.125 0.300781,0.992188 0.582031,2.1875 0.84375,3.59375 0.257813,1.40625 0.539063,2.8125 0.84375,4.21875 0.300781,1.398438 0.644531,2.570312 1.03125,3.515625 0.175781,0.5625 0.523437,0.734375 1.046875,0.515625 0.382812,-0.132812 0.597656,-0.523438 0.640625,-1.171875 0.08203,-0.90625 0.132813,-2.003906 0.15625,-3.296875 0.01953,-1.289062 0.03125,-2.601562 0.03125,-3.9375 0,-1.34375 0,-2.46875 0,-3.375 0,-0.125 0.04687,-0.1875 0.140625,-0.1875 h 15.203125 c 0.08203,0 0.125,0.0625 0.125,0.1875 0,0.05469 0,0.101562 0,0.140625 0,3.667969 -0.01172,7.324219 -0.03125,10.96875 -0.02344,3.636719 -0.03125,7.265625 -0.03125,10.890625 z m 0,0"
                   id="path49"
                   style="fill:#62a783;fill-opacity:1" /></g></g></g><g
             fill="#f6f4f1"
             fill-opacity="1"
             id="g55"
             style="fill:#62a783;fill-opacity:1"><g
               transform="translate(194.07532,51.914135)"
               id="g54"
               style="fill:#62a783;fill-opacity:1"><g
                 id="g53"
                 style="fill:#62a783;fill-opacity:1"><path
                   d="m 37.90625,-19.015625 c 0,1.417969 -0.07813,2.90625 -0.234375,4.46875 -0.148437,1.554687 -0.351563,2.714844 -0.609375,3.484375 0,0 -0.230469,0.585938 -0.6875,1.75 -0.449219,1.167969 -1.148438,2.328125 -2.09375,3.484375 -0.46875,0.523437 -1.277344,1.203125 -2.421875,2.046875 -1.148437,0.84375 -2.277344,1.5 -3.390625,1.96875 -1.386719,0.5625 -2.734375,0.976562 -4.046875,1.234375 -1.3125,0.261719 -2.230469,0.390625 -2.75,0.390625 -0.386719,0.042969 -0.992187,0.074219 -1.8125,0.09375 -0.824219,0.0234375 -1.648437,0.03125 -2.46875,0.03125 -0.8125,0 -1.414063,0 -1.796875,0 -0.04297,0 -0.507812,0.0117188 -1.390625,0.03125 C 13.316406,-0.0078125 12.222656,0 10.921875,0 9.628906,0 8.335938,0 7.046875,0 5.753906,0 4.675781,0 3.8125,0 2.945312,0 2.515625,0 2.515625,0 2.085938,0 1.894531,-0.210938 1.9375,-0.640625 c 0.082031,-0.351563 0.132812,-1.15625 0.15625,-2.40625 0.03125,-1.25 0.046875,-2.679687 0.046875,-4.296875 0,-1.613281 0,-3.164062 0,-4.65625 0,-1.488281 -0.027344,-2.664062 -0.078125,-3.53125 -0.042969,-1.894531 -0.105469,-3.789062 -0.1875,-5.6875 -0.085938,-1.894531 -0.148438,-3.789062 -0.1875,-5.6875 v -11.125 c 0.039062,-0.695312 0.082031,-1.410156 0.125,-2.140625 0,-0.34375 0.171875,-0.515625 0.515625,-0.515625 h 17.59375 c 0,0 -0.210937,0 -0.625,0 -0.40625,0 -0.78125,0 -1.125,0 -0.34375,0 -0.433594,0 -0.265625,0 0.175781,0 0.867188,0 2.078125,0 2.414063,0 4.53125,0.25 6.34375,0.75 1.8125,0.492188 3.6875,1.53125 5.625,3.125 1.382813,1.085938 2.453125,2.382812 3.203125,3.890625 0.757812,1.511719 1.300781,2.902344 1.625,4.171875 0.320312,1.273438 0.523438,2.140625 0.609375,2.609375 0.08203,0.480469 0.164063,1.195313 0.25,2.140625 0.09375,0.949219 0.160156,1.898438 0.203125,2.84375 0.03906,0.949219 0.0625,1.664062 0.0625,2.140625 z m -16.8125,2.578125 c 0.08203,-0.46875 0.132812,-1.144531 0.15625,-2.03125 0.01953,-0.882812 0.01953,-1.789062 0,-2.71875 -0.02344,-0.925781 -0.05469,-1.648438 -0.09375,-2.171875 -0.179688,-1.5 -0.484375,-2.472656 -0.921875,-2.921875 -0.429687,-0.457031 -0.835937,-0.6875 -1.21875,-0.6875 -0.386719,0 -0.667969,0.164062 -0.84375,0.484375 -0.167969,0.324219 -0.25,1 -0.25,2.03125 V -16.5 c 0,0.78125 0.05078,1.464844 0.15625,2.046875 0.101563,0.585937 0.4375,0.875 1,0.875 0.601563,0 1.035156,-0.203125 1.296875,-0.609375 0.257812,-0.414062 0.5,-1.164062 0.71875,-2.25 z m 0,0"
                   id="path52"
                   style="fill:#62a783;fill-opacity:1" /></g></g></g></g></g></g></g></svg>
