<?xml version="1.0" encoding="UTF-8" standalone="no"?>
<svg
   width="341.30298"
   height="90.372864"
   viewBox="0 0 341.30298 90.372864"
   fill="none"
   version="1.1"
   id="svg14"
   xml:space="preserve"
   xmlns="http://www.w3.org/2000/svg"
   xmlns:svg="http://www.w3.org/2000/svg"><defs
     id="defs14" /><path
     style="fill:#096f4a;fill-opacity:1;stroke:none;stroke-width:0.700965;stroke-opacity:1"
     d="m 247.26332,90.064003 c -0.13602,-0.22008 -0.22149,-2.66996 -0.18994,-5.44418 l 0.0573,-5.04403 h 13.74681 c 15.07576,0 15.56735,-0.0668 16.88238,-2.29292 0.5057,-0.85609 0.66073,-2.03914 0.66073,-5.04197 v -3.92344 l -1.25868,1.45479 c -4.57866,5.29197 -10.33509,7.22697 -17.53823,5.8954 -5.87789,-1.08659 -10.16474,-5.55663 -11.85155,-12.35799 -0.40807,-1.64538 -0.52828,-6.22803 -0.52828,-20.13901 v -18.00893 h 5.71515 5.71515 l 0.0942,17.04071 0.0942,17.0407 0.96822,1.93644 c 0.33317,0.66632 2.03856,3.02731 3.00363,3.65649 1.18092,0.7699 2.07878,0.84131 4.83539,0.97712 3.07747,0.15162 3.10651,-0.40118 5.04915,-1.35162 1.17529,-0.57502 2.56772,-1.61034 3.09429,-2.30071 2.0829,-2.73082 2.6074,-2.63516 2.6074,-20.59814 v -16.61481 l 5.90616,0.10691 5.90615,0.10691 v 28.07843 c 0,28.04011 -0.001,28.08091 -0.8443,29.88695 -1.20444,2.57995 -3.21836,4.64422 -5.81405,5.95944 l -2.24928,1.13969 -16.90735,0.11896 c -11.34147,0.0798 -16.98876,-0.0128 -17.15465,-0.28119 z m -96.01564,-14.54909 c -8.43351,-1.75827 -13.68841,-6.78175 -16.00853,-15.30356 -0.8582,-3.15214 -0.9643,-15.86859 -0.16319,-19.55808 1.74892,-8.05458 7.20391,-13.5647 15.38466,-15.54015 3.62936,-0.8764 11.08044,-0.88131 14.63817,-0.01 7.3463,1.79988 12.44299,6.9671 14.41018,14.60955 0.43076,1.67348 0.65605,4.26653 0.68738,7.91145 l 0.0466,5.42204 -16.80583,0.10097 -16.80582,0.10099 0.21844,2.88836 c 0.51034,6.74776 4.85977,10.23769 12.23936,9.82071 5.19476,-0.29353 8.15724,-2.69996 8.74267,-7.1017 l 0.25755,-1.93644 h 5.97951 5.97952 l 4.8e-4,1.23963 c 7e-4,2.08967 -0.80015,5.22682 -1.96637,7.7018 -2.04567,4.3414 -6.43183,7.78472 -11.78191,9.2493 -3.26077,0.89263 -11.63303,1.11776 -15.05287,0.40478 z m 16.6893,-32.87578 c -0.56319,-5.45673 -3.98904,-8.14588 -10.35042,-8.12463 -6.1991,0.0207 -9.77332,2.89005 -10.68251,8.57578 l -0.26057,1.62952 h 10.75412 10.75412 z M 8.0475116,74.780933 c -4.818516,-1.72189 -7.75046999,-5.51085 -8.02513599,-10.37086 -0.08192,-1.44954 0.06764,-3.22551 0.341622,-4.05558 0.407569,-1.23495 6.33225699,-12.67628 10.95398339,-21.15355 l 1.214092,-2.22691 h 5.871709 5.871709 l -4.646002,8.81082 c -7.775838,14.74634 -7.751353,14.694 -7.470848,15.97112 0.13837,0.63001 0.774987,1.58588 1.414694,2.12416 l 1.163104,0.97869 11.298487,-0.006 c 10.976639,-0.006 11.341568,-0.031 12.811225,-0.8714 3.116062,-1.78185 3.110552,-1.75969 3.328363,-13.38222 0.171105,-9.13012 0.275171,-10.45293 0.89408,-11.36452 1.108541,-1.63278 2.892553,-2.26028 6.426116,-2.26028 h 3.136604 v 14.64798 c 0,16.36556 -0.0637,16.84922 -2.612759,19.82718 -0.847796,0.99045 -2.343178,2.08793 -3.75504,2.75586 l -2.346199,1.10996 -17.234355,-0.0167 C 13.607395,75.285983 9.1105176,75.161163 8.0475116,74.781303 Z M 48.99078,74.221093 c 2.666924,-1.93257 4.299404,-4.54426 4.762674,-7.61948 l 0.23337,-1.54915 7.63306,-0.19364 c 8.32565,-0.21121 8.20273,-0.17539 9.24872,-2.6959 0.57015,-1.37389 0.28389,-2.14639 -3.28743,-8.87144 -6.51983,-12.2773 -8.36595,-15.82288 -8.36595,-16.06726 0,-0.13761 2.5997,-0.25019 5.77712,-0.25019 h 5.77713 l 2.40933,4.55064 c 1.32513,2.50286 3.14838,5.94488 4.05167,7.64896 0.90329,1.70406 2.64049,5.01538 3.86046,7.35848 l 2.21811,4.26017 -0.1569,3.31898 c -0.12793,2.70617 -0.34393,3.63578 -1.16986,5.03476 -1.43372,2.42846 -3.2467,4.03854 -5.83422,5.18125 l -2.23795,0.98835 H 60.695224 47.480341 Z m 59.93864,0.67275 c -3.12269,-0.90503 -6.95953,-4.59338 -7.93118,-7.62425 -0.30943,-0.96518 -0.51194,-5.99234 -0.61197,-15.1913 -0.0937,-8.62064 -0.30644,-14.14784 -0.570286,-14.81872 -0.52961,-1.34669 -1.19392,-1.50593 -6.59356,-1.58054 l -4.37961,-0.0605 v -5.2284 -5.2284 l 4.97348,-0.19364 c 6.705216,-0.26108 6.451536,0.0681 6.451536,-8.36961 v -6.34739 h 6.00297 6.00298 v 6.34737 c 0,8.84768 -0.90848,8.12481 10.51869,8.36961 l 9.03939,0.19364 v 5.2284 5.2284 l -8.89911,0.0636 -8.89911,0.0636 -0.87993,1.02298 c -0.87329,1.01526 -0.87993,1.11179 -0.87993,12.78848 0,6.70587 0.16239,12.19264 0.37763,12.75875 0.2077,0.54629 0.94839,1.34125 1.64598,1.76657 1.16237,0.70869 1.95599,0.77343 9.49823,0.77475 l 8.22988,0.001 v 5.2284 5.2284 l -10.94091,-0.0349 c -6.01749,-0.0192 -11.48732,-0.1933 -12.15517,-0.38685 z m 74.99278,-32.11048 v -32.53226 h 6.00297 6.00298 v 32.53226 32.53226 h -6.00298 -6.00297 z m 15.96794,7.45531 0.10454,-25.07695 5.90616,-0.10691 5.90614,-0.10691 v 3.74744 3.74744 l 1.11227,-1.53543 c 3.40909,-4.70612 10.47456,-7.39809 16.63635,-6.33851 5.38214,0.92551 8.91088,3.42947 11.0986,7.87547 2.37611,4.82883 2.50893,6.17693 2.51645,25.54013 l 0.007,17.33118 h -5.80933 -5.80933 l -0.008,-15.78202 c -0.006,-11.21287 -0.15001,-16.45892 -0.4983,-18.12008 -0.88574,-4.22434 -3.51732,-6.54798 -7.93916,-7.01016 -4.83389,-0.50524 -8.98926,1.8292 -10.51506,5.90725 -0.75104,2.00735 -0.79114,2.94802 -0.79114,18.55976 v 16.44525 h -6.01069 -6.01069 z m 99.96266,14.91062 c 3.68227,-5.59149 7.52899,-11.41712 8.54827,-12.94585 l 1.85323,-2.77951 -7.6455,-11.35652 c -4.20501,-6.2461 -7.88199,-11.63167 -8.17104,-11.96796 -0.28906,-0.33629 -0.52556,-0.72842 -0.52556,-0.8714 0,-0.14299 3.18061,-0.25329 7.06802,-0.24513 l 7.06802,0.0149 2.69862,4.34215 c 1.48424,2.3882 3.67642,5.87187 4.87152,7.74151 l 2.17291,3.39935 2.466,-3.98028 c 1.3563,-2.18915 3.40222,-5.43466 4.54651,-7.21225 1.14429,-1.77758 2.17448,-3.47681 2.28931,-3.77607 0.16824,-0.43841 1.51719,-0.54409 6.94491,-0.54409 3.70486,0 6.73612,0.097 6.73612,0.21557 0,0.18227 -5.69916,8.68695 -14.21444,21.21177 -1.14857,1.68938 -1.94118,3.23228 -1.79059,3.48559 0.52562,0.88415 16.12048,24.47361 16.49463,24.95049 0.3009,0.38353 -1.05835,0.48067 -6.54198,0.46753 l -6.9218,-0.0166 -2.26142,-3.56582 c -1.24378,-1.96121 -3.6582,-5.73123 -5.36537,-8.37783 l -3.10394,-4.81199 -5.47872,8.37981 -5.47871,8.37981 -6.47701,0.0146 -6.47702,0.0146 z M 30.572853,48.936873 c 0.01311,-11.49756 0.136043,-15.20127 0.542217,-16.33998 0.793605,-2.2249 2.533385,-4.51588 4.272717,-5.62641 2.769932,-1.76855 5.015417,-1.98559 20.632307,-1.99433 l 14.4265,-0.008 v 5.2284 5.2284 l -9.58539,0.028 c -14.159909,0.0413 -14.823091,0.0773 -16.472987,0.89537 -0.88726,0.43991 -1.842374,1.36964 -2.420558,2.35623 -0.94394,1.61071 -0.955008,1.73825 -0.955008,10.99977 0,10.37347 -0.166206,11.29459 -2.313885,12.82387 -0.993877,0.7077 -1.923994,0.92173 -4.691284,1.07951 l -3.451627,0.19681 z m -17.832299,-18.65317 1.4e-5,-5.33481 11.521843,0.0426 c 10.814778,0.04 11.462421,0.0815 10.55362,0.67657 -2.731043,1.78835 -4.926373,5.10046 -5.366768,8.09689 l -0.24892,1.69361 -8.229908,0.08 -8.229902,0.08 z m 7.141633,-7.15524 C 20.533832,21.384773 28.063294,7.5568039 29.108292,6.1845839 32.195818,2.1302339 36.477486,0.00933384 41.593582,4.384298e-5 45.450157,-0.00695616 47.959653,0.81817384 51.089684,3.1223739 c 2.70662,1.9925 3.67099,3.41455 8.11739,11.9698391 1.77129,3.40814 3.45629,6.54039 3.74443,6.96055 1.13532,1.65549 0.84473,1.75345 -5.20193,1.75345 h -5.72584 l -0.61822,-1.06504 c -0.34003,-0.58578 -1.606466,-2.95828 -2.814305,-5.27222 -2.881898,-5.52103 -3.135928,-5.88114 -4.658283,-6.60355 -1.656317,-0.78597 -3.028939,-0.77814 -4.585487,0.0262 -1.633627,0.84412 -1.727479,0.97937 -5.13238,7.39579 l -2.928603,5.51886 h -5.828781 c -5.389515,0 -5.809695,-0.0511 -5.575488,-0.67775 z"
     id="path14" /></svg>
