<?xml version="1.0" encoding="UTF-8" standalone="no"?>
<svg
   width="421.28711"
   height="126.99866"
   viewBox="0 0 421.28711 126.99866"
   fill="none"
   version="1.1"
   id="svg14"
   xml:space="preserve"
   xmlns="http://www.w3.org/2000/svg"
   xmlns:svg="http://www.w3.org/2000/svg"><defs
     id="defs14" /><path
     style="fill:#096f4a;fill-opacity:1;stroke:none"
     d="m 59.568837,0.25818393 c -4.44665,0.58378 -8.78904,0.96183997 -13.15189,2.14207997 -11.47074,3.10303 -22.13385,9.6041391 -30.10875,18.4215491 -19.7539701,21.84089 -21.8541201,55.64126 -4.70221,79.642017 4.04923,5.66612 9.05164,10.66856 14.71779,14.71779 6.48931,4.63749 13.82267,7.98643 21.55449,9.91891 7.46694,1.86625 15.38048,2.38245 23.01581,1.43242 C 101.03997,122.78203 124.51675,97.863283 126.59062,67.584103 128.71314,36.594663 106.69771,7.5597039 76.191367,1.4593039 70.920137,0.40521393 64.940887,-0.44710607 59.568837,0.25818393 m 2.00932,16.77981907 c 4.15207,-0.48991 8.94153,0.3387 12.96923,1.34095 19.622253,4.88282 34.358893,22.52533 35.247183,42.81187 1.04282,23.81524 -16.62637,45.969047 -40.727143,48.558627 -14.14006,1.51932 -28.54344,-2.94532 -38.72234,-13.124267 -17.84117,-17.84127 -18.10557,-48.60166 0.18069,-66.2976 8.8399,-8.55451 19.16764,-11.88728 31.05238,-13.28958 m 87.131293,27.53028 c -1.51486,0 -5.18919,-0.66653 -6.33522,0.44456 -0.82351,0.7984 -0.42339,2.88601 -0.42339,3.93941 v 10.04658 c 0,1.02865 -0.36906,2.95837 0.44455,3.74211 1.16365,1.12092 4.78937,0.45919 6.31406,0.45919 v 16.62253 c 0,6.22857 0.1638,12.81029 4.59834,17.71781 5.68471,6.291067 16.5254,6.614677 24.26276,5.078837 1.99411,-0.39581 3.97105,-0.88405 5.84528,-1.68557 0.61721,-0.26397 1.60941,-0.5736 1.8991,-1.239457 0.45432,-1.0443 0.11022,-2.8512 0.11022,-3.97975 v -9.49859 c 0,-0.87533 0.46066,-3.67749 -0.58971,-4.04668 -0.82111,-0.2886 -2.24876,0.57324 -3.06359,0.77789 -2.75407,0.69168 -6.33286,1.03842 -8.30534,-1.48318 -1.30927,-1.67377 -1.19325,-4.19556 -1.19325,-6.20794 v -12.0559 h 9.49859 c 1.03984,0 2.76468,0.31649 3.59524,-0.45919 0.80471,-0.75153 0.42339,-2.73755 0.42339,-3.74211 v -10.41191 h 0.18267 c 3.62576,12.77628 7.60013,25.48241 11.5034,38.17702 1.06482,3.4631 2.13318,6.92999 3.13561,10.41192 0.42598,1.47962 0.73215,3.883987 1.73728,5.072897 0.64089,0.75807 1.73238,0.58972 2.62089,0.58972 h 6.57594 7.30661 c 0.84793,0 2.15695,0.2376 2.87176,-0.31826 1.33937,-1.04154 1.79603,-4.845107 2.30572,-6.440357 1.90833,-5.97285 4.36952,-11.97616 5.78243,-18.08385 h 0.18267 c 0.31906,2.16853 1.24663,4.2981 1.8778,6.39328 1.19254,3.95866 2.38245,7.92103 3.59765,11.87324 0.49883,1.62236 0.82177,5.203637 2.23751,6.257687 0.73635,0.54822 2.0181,0.31826 2.88162,0.31826 h 7.12394 6.75861 c 0.86545,0 2.00153,0.18052 2.60706,-0.58972 0.89905,-1.1436 1.16596,-3.492237 1.56844,-4.890237 1.00236,-3.48174 2.07081,-6.9489 3.13561,-10.41191 2.52304,-8.20569 4.96668,-16.43715 7.43362,-24.6598 1.35638,-4.52099 3.11322,-9.07787 4.06978,-13.69989 h 0.18267 v 39.82101 10.22925 c 0,0.99556 -0.36901,2.948857 0.31826,3.756757 0.81352,0.95627 3.64911,0.44454 4.79636,0.44454 h 13.69989 c 1.33474,0 4.50933,0.61174 5.13407,-0.92136 0.55208,-1.35478 0.16322,-3.477097 0.16322,-4.923927 v -11.32524 -27.03445 c 0,-4.18406 0.68754,-9.03896 -0.0602,-13.15176 -0.26887,-1.47884 -1.47167,-1.27879 -2.6798,-1.27879 h -7.3066 -25.2078 -6.57594 c -0.82374,0 -2.13214,-0.24137 -2.85979,0.21538 -1.26519,0.79417 -1.56302,4.60362 -1.91263,5.99524 -1.45539,5.793 -3.20908,11.53258 -4.54351,17.35319 h -0.18266 c -0.84891,-5.76967 -3.38758,-11.77943 -5.11929,-17.35319 -0.48039,-1.54623 -0.85227,-4.93189 -2.21171,-5.91773 -0.73521,-0.53315 -2.03927,-0.29289 -2.89825,-0.29289 h -6.94128 -6.02795 c -0.78502,0 -1.87174,-0.19234 -2.4788,0.4234 -1.28818,1.30657 -1.65476,4.77233 -2.16536,6.51788 -1.57246,5.37571 -2.76845,11.32192 -5.0371,16.43987 -2.12147,-4.79199 -2.91963,-10.9456 -4.01863,-16.07454 -0.3786,-1.76691 -0.63739,-5.56654 -1.93052,-6.86205 -0.61406,-0.6152 -1.66267,-0.44456 -2.45344,-0.44456 h -6.39329 -25.75579 v -14.06521 c 0,-1.14238 0.51098,-3.96209 -0.44455,-4.76861 -1.16828,-0.98611 -4.16154,0.65652 -5.40073,1.05244 -4.44502,1.42019 -8.90281,2.80135 -13.33456,4.26403 -1.15138,0.38 -4.01556,0.68686 -4.71658,1.72263 -0.535,0.79044 -0.21538,2.47528 -0.21538,3.39213 v 8.76792 m 125.35003,-19.17478 c -0.92931,0.56822 -0.58971,2.36676 -0.58971,3.28291 v 8.4026 c 0,0.92269 -0.30524,2.50233 0.42339,3.20875 1.038,1.00635 4.0678,0.44456 5.42189,0.44456 h 13.33456 c 1.333,0 3.96974,0.49978 5.08756,-0.31826 0.88229,-0.64569 0.57506,-2.20012 0.57506,-3.15238 v -8.4026 c 0,-0.89011 0.34564,-2.67315 -0.42339,-3.30742 -1.09155,-0.90028 -4.0682,-0.34588 -5.42189,-0.34588 h -13.33456 c -1.30446,0 -3.9424,-0.50349 -5.07291,0.18772 m 28.85843,-0.0521 c -1.4636,0.66381 -0.76971,4.91689 -0.76971,6.25769 v 19.36251 37.44636 9.68125 c 0,1.053 -0.35164,2.907787 0.31826,3.794247 0.88251,1.16777 4.03351,0.58972 5.34436,0.58972 h 12.23857 c 1.52157,0 3.87058,0.44254 5.28926,-0.1356 1.62918,-0.66392 0.92136,-4.639737 0.92136,-6.075017 v -18.63185 -37.99436 -10.04658 c 0,-1.01819 0.39324,-3.08988 -0.18775,-3.96057 -0.65837,-0.98664 -4.2067,-0.42339 -5.29221,-0.42339 h -12.6039 c -1.46179,0 -3.91724,-0.47263 -5.25824,0.13559 m 27.92862,0 c -1.11794,0.48079 -0.75056,2.36312 -0.75056,3.33504 v 8.58527 c 0,0.95926 -0.288,2.4891 0.58974,3.15238 1.17279,0.88625 4.20054,0.31826 5.62088,0.31826 h 12.42123 c 1.55471,0 4.02898,0.46787 5.46007,-0.18436 1.08377,-0.49395 0.75055,-2.1358 0.75055,-3.10362 v -8.76793 c 0,-0.81423 0.35846,-2.76116 -0.42339,-3.28291 -1.17939,-0.78703 -4.38517,-0.18772 -5.78723,-0.18772 h -12.60389 c -1.49294,0 -3.89609,-0.45847 -5.2774,0.13559 m -285.160243,9.62584 c -1.88968,0.29516 -3.70706,0.99032 -5.29729,2.05231 -10.99672,7.34378 -4.68432,25.83765 8.76793,23.91041 2.11115,-0.30245 4.066,-0.98625 5.84528,-2.1793 11.26635,-7.55433 4.095,-25.87818 -9.31592,-23.78342 m 31.23574,0 c -1.87784,0.29331 -3.71813,1.00422 -5.29729,2.066 -10.91652,7.33999 -4.63368,25.81581 8.76793,23.89672 2.19213,-0.31391 4.18762,-0.99729 6.02795,-2.25007 11.235083,-7.64812 3.784923,-25.78752 -9.49859,-23.71265 m 309.069493,8.03462 c -5.92426,0.78012 -11.45689,2.33186 -16.43987,5.77241 -14.59506,10.07729 -17.03134,31.00615 -4.91563,44.01765 7.25184,7.788067 18.24685,11.074167 28.66211,9.811767 4.97655,-0.60319 9.79582,-2.19888 14.06522,-4.845827 3.22763,-2.00109 6.0613,-4.67404 8.3341,-7.70592 1.99014,-2.6548 3.56866,-5.75631 4.4781,-8.95059 5.9508,-20.90138 -12.93355,-40.89782 -34.18403,-38.09949 m -54.77966,1.38885 c -1.30256,0.73323 -0.75055,3.66824 -0.75055,4.9269 v 14.97854 27.94778 6.75861 c 0,0.85673 -0.18334,2.032947 0.58973,2.629757 0.8236,0.63578 2.62439,0.29288 3.61156,0.29288 h 9.49859 6.94128 c 0.83515,0 2.13891,0.2383 2.8809,-0.21535 1.15174,-0.70417 0.58974,-3.906027 0.58974,-5.081937 v -15.52654 -27.39978 -6.75861 c 0,-0.74252 0.19395,-1.87863 -0.44453,-2.42172 -0.80799,-0.68731 -2.76112,-0.31826 -3.75677,-0.31826 h -9.68125 -6.57595 c -0.84313,0 -2.144,-0.23939 -2.90275,0.18773 m 58.43296,18.68612 c 4.34236,-0.3219 7.89523,3.65355 8.65617,7.6126 1.12186,5.83686 -1.96588,12.3246 -8.4735,12.77022 -7.72505,0.52898 -11.83872,-8.62337 -8.86122,-14.9622 1.70187,-3.62314 4.88339,-5.13927 8.67855,-5.42062 m -343.593203,3.1242 c -2.02914,0.2907 -3.9403,0.97034 -5.66262,2.0891 -11.41467,7.41457 -4.36193,25.63096 8.95059,23.90095 1.86715,-0.24265 3.71321,-0.88298 5.29729,-1.90135 9.41687,-6.05395 7.25196,-21.10635 -3.83597,-23.77777 -1.53801,-0.37056 -3.17488,-0.53649 -4.74929,-0.31093 m 31.41841,-5.6e-4 c -2.04479,0.27836 -3.9133,0.89748 -5.66262,2.0113 -11.5317,7.34233 -4.6221,25.62432 8.76793,23.97987 1.82927,-0.22466 3.52134,-0.8288 5.11462,-1.75167 11.819823,-6.84633 5.328883,-26.08388 -8.21993,-24.2395 z"
     id="path14" /></svg>
